<svg width="41" height="41" viewBox="0 0 41 41" fill="none" xmlns="http://www.w3.org/2000/svg">
<path fill-rule="evenodd" clip-rule="evenodd" d="M40 20C40 31.0457 31.0459 40 20 40C8.9541 40 0 31.0457 0 20C0 8.95435 8.9541 0 20 0C31.0459 0 40 8.95435 40 20ZM29.5342 11.2C31.7793 11.2 33.5996 12.8831 33.5996 14.9595L33.5986 25.0405C33.5986 27.1165 31.7793 28.8 29.5342 28.8H10.4639C8.21875 28.8 6.39941 27.1169 6.39941 25.0405V14.9595C6.39941 12.8833 8.21875 11.2 10.4639 11.2H29.5342ZM17.2783 14.7842V24.2527L25.0469 19.5188L17.2783 14.7842Z" transform="translate(0.333008 0.762695)" fill="#004391"/>
</svg>
