<svg width="53" height="57" viewBox="0 0 53 57" fill="none" xmlns="http://www.w3.org/2000/svg">
<path d="M28.2635 0H0V41.7279H28.2635V0Z" transform="translate(13.3242 1.80005)" stroke="#FFFFFF" stroke-width="2" stroke-miterlimit="10" stroke-linecap="round" stroke-linejoin="round"/>
<path d="M2.2139e-07 -1.90735e-07H19.384" transform="translate(17.7344 6.26892)" stroke="#FFFFFF" stroke-width="2" stroke-miterlimit="10" stroke-linecap="round" stroke-linejoin="round"/>
<path d="M2.2139e-07 -3.8147e-07H19.384" transform="translate(17.7344 13.0591)" stroke="#FFFFFF" stroke-width="2" stroke-miterlimit="10" stroke-linecap="round" stroke-linejoin="round"/>
<path d="M2.2139e-07 0H19.384" transform="translate(17.7344 16.8894)" stroke="#FFFFFF" stroke-width="2" stroke-miterlimit="10" stroke-linecap="round" stroke-linejoin="round"/>
<path d="M2.2139e-07 0H19.384" transform="translate(17.7344 20.6617)" stroke="#FFFFFF" stroke-width="2" stroke-miterlimit="10" stroke-linecap="round" stroke-linejoin="round"/>
<path d="M2.2139e-07 -1.52588e-06H19.384" transform="translate(17.7344 24.4922)" stroke="#FFFFFF" stroke-width="2" stroke-miterlimit="10" stroke-linecap="round" stroke-linejoin="round"/>
<path d="M2.2139e-07 7.62939e-07H19.384" transform="translate(17.7344 28.3225)" stroke="#FFFFFF" stroke-width="2" stroke-miterlimit="10" stroke-linecap="round" stroke-linejoin="round"/>
<path d="M2.72769 5.45539C4.23415 5.45539 5.45538 4.23415 5.45538 2.72769C5.45538 1.22123 4.23415 0 2.72769 0C1.22123 0 0 1.22123 0 2.72769C0 4.23415 1.22123 5.45539 2.72769 5.45539Z" transform="translate(17.8496 34.2422)" stroke="#FFFFFF" stroke-width="2" stroke-miterlimit="10" stroke-linecap="round" stroke-linejoin="round"/>
<path d="M0 1.21875C0.29018 0.812503 0.580359 0.406251 0.928575 0.0580351L0.986612 0C1.04465 0 1.10268 0.0580351 1.10268 0.0580351C1.33483 0.406251 1.56697 0.696432 1.79912 0.986612C1.97322 1.16072 2.14733 1.39286 2.37948 1.50893C2.66966 1.68304 3.07591 1.68304 3.36609 1.56697C3.65627 1.4509 3.94645 1.16072 4.00448 0.812505C4.00448 0.696433 4.06252 0.580361 4.12056 0.522325C4.17859 0.464289 4.23663 0.464288 4.29466 0.464288C4.75895 0.464288 5.22324 0.580359 5.51342 0.928575C5.68753 1.10268 5.86164 1.39286 6.09378 1.50893C6.32592 1.62501 6.67414 1.56697 6.90628 1.50893C7.54468 1.33483 8.12504 1.16072 8.7054 0.928575" transform="translate(27.541 34.3002)" stroke="#FFFFFF" stroke-width="2" stroke-miterlimit="10" stroke-linecap="round" stroke-linejoin="round"/>
<path d="M9.63398 3.05176e-06H4.4278e-07" transform="translate(27.3672 39.1172)" stroke="#FFFFFF" stroke-width="2" stroke-miterlimit="10" stroke-linecap="round" stroke-linejoin="round"/>
<path d="M3.19198 25.5939L1.62501 27.9153L8.85559e-07 25.5939V0H3.19198V25.5939Z" transform="translate(45.1865 1.80005)" stroke="#FFFFFF" stroke-width="2" stroke-miterlimit="10" stroke-linecap="round" stroke-linejoin="round"/>
<path d="M-3.05176e-06 2.2634V-8.85559e-07" transform="translate(46.8105 29.7153)" stroke="#FFFFFF" stroke-width="2" stroke-miterlimit="10" stroke-linecap="round" stroke-linejoin="round"/>
<path d="M8.85559e-07 0H3.19198" transform="translate(45.1855 23.5636)" stroke="#FFFFFF" stroke-width="2" stroke-miterlimit="10" stroke-linecap="round" stroke-linejoin="round"/>
<path d="M8.85559e-07 1.10695e-07H6.09378V5.74556" transform="translate(45.1855 4.87598)" stroke="#FFFFFF" stroke-width="2" stroke-miterlimit="10" stroke-linecap="round" stroke-linejoin="round"/>
<path d="M5.8036 0H0V5.8036V41.7279H22.4599H28.2635V35.9243" transform="translate(7.51953 7.60364)" stroke="#FFFFFF" stroke-width="2" stroke-miterlimit="10" stroke-linecap="round" stroke-linejoin="round"/>
<path d="M28.2635 35.9243V41.7279H0V0H5.8036" transform="translate(1.7168 13.4072)" stroke="#FFFFFF" stroke-width="2" stroke-miterlimit="10" stroke-linecap="round" stroke-linejoin="round"/>
</svg>
