<svg width="16" height="12" viewBox="0 0 16 12" fill="none" xmlns="http://www.w3.org/2000/svg">
<path d="M0 2.00107V9.99893C0 11.101 0.910463 12 2.02651 12H8.57271C9.68876 12 10.5992 11.101 10.5992 9.99893V8.70354C10.5992 8.48442 10.4197 8.3072 10.1978 8.3072C9.97593 8.3072 9.79645 8.48442 9.79645 8.70354V9.99893C9.79645 10.666 9.24495 11.2105 8.56945 11.2105H2.02651C1.35101 11.2105 0.79951 10.666 0.79951 9.99893V2.00107C0.79951 1.33405 1.35101 0.789474 2.02651 0.789474H8.57271C9.24822 0.789474 9.79971 1.33405 9.79971 2.00107V3.29646C9.79971 3.51557 9.9792 3.6928 10.2011 3.6928C10.423 3.6928 10.6025 3.51557 10.6025 3.29646V2.00107C10.6025 0.899033 9.69202 2.45845e-08 8.57597 2.45845e-08H2.02651C0.910463 2.45845e-08 0 0.895811 0 2.00107Z" fill="#004391"/>
<path d="M5.84458 6.08056C5.9229 6.1579 6.02407 6.19656 6.12849 6.19656C6.23292 6.19656 6.33408 6.1579 6.4124 6.08056L9.15032 3.37701C9.30696 3.22234 9.30696 2.97422 9.15032 2.81955L6.4124 0.116004C6.25576 -0.038668 6.00449 -0.038668 5.84785 0.116004C5.69121 0.270677 5.69121 0.518797 5.84785 0.67347L7.90373 2.70355H0.401387C0.179482 2.70355 9.95883e-08 2.88077 9.95883e-08 3.09989C9.95883e-08 3.31901 0.179482 3.49624 0.401387 3.49624H7.90047L5.84458 5.52632C5.68795 5.67777 5.68795 5.92911 5.84458 6.08056Z" transform="translate(6.73242 2.8999)" fill="#004391"/>
</svg>
