<svg width="26" height="25" viewBox="0 0 26 25" fill="none" xmlns="http://www.w3.org/2000/svg">
<path d="M12.5758 0C5.63035 0 0 5.59643 0 12.5C0 19.4036 5.63035 25 12.5758 25C12.6015 25 12.627 24.9992 12.6527 24.999L12.6658 17.4272H10.6441C10.3814 17.4272 10.1682 17.216 10.1672 16.9549L10.1575 14.4617C10.1565 14.1991 10.3704 13.9857 10.6345 13.9857H12.6525V11.5766C12.6525 8.78095 14.3703 7.25867 16.8793 7.25867H18.9382C19.2016 7.25867 19.4152 7.47095 19.4152 7.73283V9.8351C19.4152 10.0969 19.2018 10.3091 18.9385 10.3093L17.6749 10.3098C16.3105 10.3098 16.0462 10.9544 16.0462 11.9002V13.9858H19.0445C19.3302 13.9858 19.5518 14.2337 19.5182 14.5158L19.2209 17.009C19.1925 17.2476 18.9889 17.4273 18.7472 17.4273H16.0596L16.0473 24.5173C21.3043 23.0197 25.1515 18.2066 25.1515 12.5C25.1515 5.59643 19.5212 0 12.5758 0Z" fill="white"/>
</svg>
