<svg width="26" height="25" viewBox="0 0 41 41" fill="none" xmlns="http://www.w3.org/2000/svg">
<path d="M20 0C8.95429 0 0 8.95429 0 20C0 31.0457 8.95429 40 20 40C20.0409 40 20.0814 39.9987 20.1223 39.9985L20.1432 27.8835H16.928C16.5102 27.8835 16.1711 27.5457 16.1695 27.1278L16.1541 23.1387C16.1525 22.7186 16.4926 22.3771 16.9127 22.3771H20.122V18.5226C20.122 14.0495 22.8539 11.6139 26.8442 11.6139H30.1186C30.5375 11.6139 30.8772 11.9535 30.8772 12.3725V15.7362C30.8772 16.155 30.5378 16.4946 30.119 16.4948L28.1096 16.4958C25.9395 16.4958 25.5193 17.527 25.5193 19.0403V22.3773H30.2876C30.742 22.3773 31.0945 22.774 31.041 23.2252L30.5682 27.2144C30.523 27.5961 30.1992 27.8837 29.8149 27.8837H25.5406L25.521 39.2277C33.8815 36.8315 40 29.1305 40 20C40 8.95429 31.0457 0 20 0Z" transform="translate(0.666992 0.762695)" fill="#004391"/>
</svg>
