<svg width="26" height="25" viewBox="0 0 40 41" fill="none" xmlns="http://www.w3.org/2000/svg">
<path d="M6.32142 12.6428C9.81265 12.6428 12.6428 9.81265 12.6428 6.32142C12.6428 2.8302 9.81265 0 6.32142 0C2.8302 0 0 2.8302 0 6.32142C0 9.81265 2.8302 12.6428 6.32142 12.6428Z" transform="translate(13.751 14.5178)" fill="#004391"/>
<path d="M20 0C8.95429 0 0 8.95429 0 20C0 31.0457 8.95429 40 20 40C31.0457 40 40 31.0457 40 20C40 8.95429 31.0457 0 20 0ZM20.0726 30.4221C14.3681 30.4221 9.72717 25.7811 9.72717 20.0767C9.72717 14.3723 14.3681 9.73131 20.0726 9.73131C25.7771 9.73131 30.418 14.3722 30.418 20.0767C30.418 25.7811 25.7771 30.4221 20.0726 30.4221ZM30.438 12.288C29.0689 12.288 27.9591 11.1781 27.9591 9.80898C27.9591 8.43984 29.0689 7.33 30.438 7.33C31.8072 7.33 32.917 8.43984 32.917 9.80898C32.917 11.1781 31.8072 12.288 30.438 12.288Z" transform="translate(0 0.762695)" fill="#004391"/>
</svg>
