<svg width="26" height="25" viewBox="0 0 26 25" fill="none" xmlns="http://www.w3.org/2000/svg">
<path d="M3.97484 7.90178C6.17008 7.90178 7.94967 6.13291 7.94967 3.95089C7.94967 1.76887 6.17008 0 3.97484 0C1.77959 0 0 1.76887 0 3.95089C0 6.13291 1.77959 7.90178 3.97484 7.90178Z" transform="translate(8.64661 8.59698)" fill="white"/>
<path d="M12.5758 0C5.63035 0 0 5.59643 0 12.5C0 19.4036 5.63035 25 12.5758 25C19.5212 25 25.1515 19.4036 25.1515 12.5C25.1515 5.59643 19.5212 0 12.5758 0ZM12.6214 19.0138C9.0345 19.0138 6.11633 16.1132 6.11633 12.5479C6.11633 8.98266 9.0345 6.08207 12.6214 6.08207C16.2083 6.08207 19.1265 8.98261 19.1265 12.5479C19.1265 16.1132 16.2083 19.0138 12.6214 19.0138ZM19.1391 7.67997C18.2782 7.67997 17.5803 6.98632 17.5803 6.13061C17.5803 5.2749 18.2782 4.58125 19.1391 4.58125C20 4.58125 20.6978 5.2749 20.6978 6.13061C20.6978 6.98632 20 7.67997 19.1391 7.67997Z" fill="white"/>
</svg>
