<svg width="62" height="58" viewBox="0 0 62 58" fill="none" xmlns="http://www.w3.org/2000/svg">
<path d="M12.0248 18.6531H8.56401C3.81274 18.6531 -4.47522e-07 14.7817 -4.47522e-07 10.0891V4.47522e-07H20.5888V10.0891C20.5888 14.8404 16.7761 18.6531 12.0248 18.6531Z" transform="translate(11.2129 15.8231)" stroke="#FFFFFF" stroke-width="2" stroke-miterlimit="10" stroke-linecap="round" stroke-linejoin="round"/>
<path d="M40.272 16.2482L39.7441 7.68415C38.7469 3.98872 35.6381 1.29047 31.8253 0.821208L24.6104 8.95044e-07C24.6104 1.34913 22.6161 2.46362 20.1524 2.46362C17.6888 2.46362 15.6945 1.34913 15.6945 8.95044e-07L8.77288 0.879865C5.25342 1.29047 2.26188 3.69543 1.08873 7.03891L0.0915515 16.1308C-0.260394 17.128 0.443497 18.1252 1.49933 18.1252H38.7469C39.8027 18.1252 40.5066 17.2453 40.272 16.2482Z" transform="translate(1.32617 38.5236)" stroke="#FFFFFF" stroke-width="2" stroke-miterlimit="10" stroke-linecap="round" stroke-linejoin="round"/>
<path d="M7.62939e-07 4.28201V0" transform="translate(17.0215 34.183)" stroke="#FFFFFF" stroke-width="2" stroke-miterlimit="10" stroke-linecap="round" stroke-linejoin="round"/>
<path d="M0 4.34066V0" transform="translate(25.9961 34.183)" stroke="#FFFFFF" stroke-width="2" stroke-miterlimit="10" stroke-linecap="round" stroke-linejoin="round"/>
<path d="M30.4433 34.9013V12.4941C30.4433 8.38804 28.6249 4.51664 24.2842 4.22335C23.5217 1.58376 20.7061 1.11881e-07 17.9492 1.11881e-07H12.4941C5.57247 1.11881e-07 -2.23761e-07 5.57247 -2.23761e-07 12.4941V34.9013" transform="translate(6.28711 5.6167)" stroke="#FFFFFF" stroke-width="2" stroke-miterlimit="10" stroke-linecap="round" stroke-linejoin="round"/>
<path d="M0.879865 1.75973C1.3658 1.75973 1.75973 1.3658 1.75973 0.879863C1.75973 0.393928 1.3658 0 0.879865 0C0.393929 0 0 0.393928 0 0.879863C0 1.3658 0.393929 1.75973 0.879865 1.75973Z" transform="translate(25.0566 20.7504)" fill="#FFFFFF"/>
<path d="M0.879864 1.75973C1.3658 1.75973 1.75973 1.3658 1.75973 0.879863C1.75973 0.393928 1.3658 0 0.879864 0C0.393928 0 0 0.393928 0 0.879863C0 1.3658 0.393928 1.75973 0.879864 1.75973Z" transform="translate(16.1992 20.7504)" fill="#FFFFFF"/>
<path d="M8.68133 3.05176e-06H-2.23761e-07" transform="translate(17.1387 56.6489)" stroke="#FFFFFF" stroke-width="2" stroke-miterlimit="10" stroke-linecap="round" stroke-linejoin="round"/>
<path d="M4.45798 -8.95044e-07C3.98872 0.762548 3.16751 1.29047 2.22899 1.29047C1.29047 1.29047 0.469261 0.762548 0 -8.95044e-07" transform="translate(19.25 29.8423)" stroke="#FFFFFF" stroke-width="2" stroke-miterlimit="10" stroke-linecap="round" stroke-linejoin="round"/>
<path d="M3.8147e-07 -1.79009e-06V8.27072" transform="translate(9.92383 48.3782)" stroke="#FFFFFF" stroke-width="2" stroke-miterlimit="10" stroke-linecap="round" stroke-linejoin="round"/>
<path d="M-1.52588e-06 -1.79009e-06V8.27072" transform="translate(33.0938 48.3782)" stroke="#FFFFFF" stroke-width="2" stroke-miterlimit="10" stroke-linecap="round" stroke-linejoin="round"/>
<path d="M9.56119 19.1224C14.8417 19.1224 19.1224 14.8417 19.1224 9.56119C19.1224 4.28069 14.8417 0 9.56119 0C4.28069 0 0 4.28069 0 9.56119C0 14.8417 4.28069 19.1224 9.56119 19.1224Z" transform="translate(41.5986 1.0415)" stroke="#FFFFFF" stroke-width="2" stroke-miterlimit="10" stroke-linecap="round" stroke-linejoin="round"/>
<path d="M0.879865 1.75973C0.410604 1.75973 8.95044e-07 1.34912 8.95044e-07 0.879864C8.95044e-07 0.410603 0.410604 -1.11881e-07 0.879865 -1.11881e-07C1.34913 -1.11881e-07 1.75973 0.410603 1.75973 0.879864C1.75973 1.34912 1.40778 1.75973 0.879865 1.75973ZM0.879865 10.0891C0.469262 10.0891 0.117314 9.73716 0.117314 9.32656V3.63677C0.117314 3.22617 0.469262 2.87422 0.879865 2.87422C1.29047 2.87422 1.64241 3.22617 1.64241 3.63677V9.32656C1.64241 9.73716 1.29047 10.0891 0.879865 10.0891Z" transform="translate(50.2793 5.55811)" fill="#FFFFFF"/>
</svg>
