<svg width="45" height="52" viewBox="0 0 45 52" fill="none" xmlns="http://www.w3.org/2000/svg">
<path d="M3.90866e-07 1.90735e-07H25.0523" transform="translate(9.74023 7.64099)" stroke="#FFFFFF" stroke-width="2" stroke-miterlimit="10" stroke-linecap="round" stroke-linejoin="round"/>
<path d="M3.90866e-07 7.62939e-07H25.0523" transform="translate(9.74023 14.2499)" stroke="#FFFFFF" stroke-width="2" stroke-miterlimit="10" stroke-linecap="round" stroke-linejoin="round"/>
<path d="M3.90866e-07 -1.52588e-06H7.27489" transform="translate(9.74023 20.8586)" stroke="#FFFFFF" stroke-width="2" stroke-miterlimit="10" stroke-linecap="round" stroke-linejoin="round"/>
<path d="M3.90866e-07 0H4.71331" transform="translate(9.74023 27.4677)" stroke="#FFFFFF" stroke-width="2" stroke-miterlimit="10" stroke-linecap="round" stroke-linejoin="round"/>
<path d="M3.90866e-07 1.52588e-06H7.27489" transform="translate(9.74023 34.0765)" stroke="#FFFFFF" stroke-width="2" stroke-miterlimit="10" stroke-linecap="round" stroke-linejoin="round"/>
<path d="M40.8316 49.3873L8.04336 45.3912C3.63744 45.3912 0 41.7538 0 37.2966V0.717242C0 0.30739 0.307389 1.22146e-08 0.717242 1.22146e-08H40.9341C41.3439 1.22146e-08 41.6513 0.30739 41.6513 0.717242V48.67C41.6513 49.0799 41.2927 49.4385 40.8316 49.3873Z" transform="translate(1.44141 1.41528)" stroke="#FFFFFF" stroke-width="2" stroke-miterlimit="10" stroke-linejoin="round"/>
<path d="M35.4523 10.1951L6.66011 1.56346e-06C6.66011 1.56346e-06 7.27489 6.9675 1.95433e-07 6.04533" transform="translate(7.38281 40.4539)" stroke="#FFFFFF" stroke-width="2" stroke-miterlimit="10" stroke-linejoin="round"/>
<path d="M8.65814 17.3163C13.4399 17.3163 17.3163 13.4399 17.3163 8.65814C17.3163 3.87638 13.4399 0 8.65814 0C3.87638 0 0 3.87638 0 8.65814C0 13.4399 3.87638 17.3163 8.65814 17.3163Z" transform="translate(21.1641 17.8094)" stroke="#FFFFFF" stroke-width="2" stroke-miterlimit="10" stroke-linejoin="round"/>
<path d="M7.81732e-07 1.56346e-06L2.81774 6.50641" transform="translate(33.4082 34.5623)" stroke="#FFFFFF" stroke-width="2" stroke-miterlimit="10" stroke-linecap="round" stroke-linejoin="round"/>
<path d="M-7.81732e-07 7.81732e-07L2.81774 6.55764" transform="translate(34.5352 37.175)" stroke="#FFFFFF" stroke-width="3" stroke-miterlimit="10" stroke-linecap="round" stroke-linejoin="round"/>
</svg>
