<svg width="40" height="41" viewBox="0 0 25 25" fill="none" xmlns="http://www.w3.org/2000/svg">
<path d="M12.5 25C19.4036 25 25 19.4036 25 12.5C25 5.59644 19.4036 0 12.5 0C5.59644 0 0 5.59644 0 12.5C0 19.4036 5.59644 25 12.5 25Z" fill="white"/>
<path fill-rule="evenodd" clip-rule="evenodd" d="M8.03047 9.32443H9.01157C9.01157 9.32443 9.30792 9.2919 9.45922 9.12879C9.59848 8.97905 9.59403 8.69785 9.59403 8.69785C9.59403 8.69785 9.57487 7.3814 10.1859 7.18754C10.7881 6.99658 11.5616 8.45987 12.3813 9.0225C13.0012 9.44832 13.4723 9.35496 13.4723 9.35496L15.6642 9.32443C15.6642 9.32443 16.8109 9.25379 16.2672 8.35225C16.2226 8.27849 15.9505 7.68533 14.6374 6.46649C13.2631 5.19082 13.4471 5.39715 15.1027 3.19052C16.111 1.84667 16.5141 1.02623 16.3882 0.674835C16.2681 0.340153 15.5265 0.428614 15.5265 0.428614L13.0585 0.443989C13.0585 0.443989 12.8756 0.419032 12.7399 0.50014C12.6073 0.579689 12.5219 0.765079 12.5219 0.765079C12.5219 0.765079 12.1313 1.805 11.6104 2.68939C10.5114 4.55554 10.072 4.65403 9.89239 4.53816C9.47459 4.2681 9.57888 3.45323 9.57888 2.87433C9.57888 1.06589 9.85317 0.311854 9.04477 0.11666C8.77649 0.0518184 8.57906 0.00903617 7.89299 0.00212861C7.01239 -0.00700719 6.26704 0.00480221 5.84501 0.211583C5.56425 0.349066 5.34767 0.655449 5.47958 0.673052C5.64268 0.694889 6.01213 0.772655 6.20799 1.03938C6.4609 1.38342 6.45198 2.15617 6.45198 2.15617C6.45198 2.15617 6.59726 4.28503 6.11262 4.54953C5.77994 4.73091 5.3236 4.36057 4.34384 2.66755C3.84182 1.80032 3.46279 0.84173 3.46279 0.84173C3.46279 0.84173 3.38971 0.662579 3.25936 0.566765C3.10115 0.450673 2.88011 0.413685 2.88011 0.413685L0.534883 0.429059C0.534883 0.429059 0.18282 0.438864 0.0535822 0.591945C-0.0613952 0.72809 0.0444463 1.00974 0.0444463 1.00974C0.0444463 1.00974 1.88052 5.30535 3.95947 7.47009C5.86573 9.45478 8.03047 9.32443 8.03047 9.32443Z" transform="translate(3.99731 8.65784)" fill="#004391"/>
</svg>
