<svg width="40" height="41" viewBox="0 0 40 41" fill="none" xmlns="http://www.w3.org/2000/svg">
<path fill-rule="evenodd" clip-rule="evenodd" d="M40 20C40 31.0457 31.0459 40 20 40C8.9541 40 0 31.0457 0 20C0 8.95435 8.9541 0 20 0C31.0459 0 40 8.95435 40 20ZM20.8145 28.7717H19.2441C19.2441 28.7717 15.7803 28.9802 12.7305 25.8047C9.4043 22.3411 6.4668 15.468 6.4668 15.468C6.4668 15.468 6.29688 15.0176 6.48145 14.7996C6.68848 14.5547 7.25098 14.5391 7.25098 14.5391L11.0039 14.5144C11.0039 14.5144 11.3574 14.5737 11.6104 14.7593C11.8193 14.9126 11.9355 15.1992 11.9355 15.1992C11.9355 15.1992 12.542 16.7332 13.3457 18.1206C14.9131 20.8293 15.6436 21.4219 16.1758 21.1318C16.9512 20.7085 16.7188 17.3025 16.7188 17.3025C16.7188 17.3025 16.7334 16.0659 16.3281 15.5156C16.0146 15.0889 15.4238 14.9644 15.1631 14.9294C14.9521 14.9014 15.2979 14.4111 15.7471 14.1912C16.4229 13.8601 17.6152 13.8413 19.0244 13.856C20.1221 13.8669 20.4375 13.9355 20.8672 14.0393C21.8633 14.2798 21.832 15.0503 21.7646 16.7131C21.7451 17.2097 21.7217 17.7859 21.7217 18.4514C21.7217 18.6013 21.7178 18.761 21.7129 18.925C21.6895 19.7766 21.6631 20.7512 22.2236 21.1135C22.5107 21.2991 23.2139 21.1414 24.9717 18.1555C25.8057 16.7405 26.4307 15.0767 26.4307 15.0767C26.4307 15.0767 26.5674 14.78 26.7793 14.6528C26.9961 14.5229 27.2891 14.563 27.2891 14.563L31.2383 14.5383C31.2383 14.5383 32.4248 14.3967 32.6162 14.9324C32.8184 15.4944 32.1729 16.8071 30.5596 18.9573C29.0273 20.9995 28.2832 21.75 28.3535 22.4148C28.4043 22.8994 28.8887 23.3384 29.8154 24.199C31.7588 26.0032 32.2773 26.9504 32.4004 27.1755L32.4229 27.2161C33.293 28.6587 31.458 28.7717 31.458 28.7717L27.9512 28.8206C27.9512 28.8206 27.1973 28.97 26.2061 28.2886C25.6865 27.9324 25.1797 27.3508 24.6963 26.7966C23.957 25.9502 23.2754 25.168 22.6924 25.3525C21.7148 25.6628 21.7461 27.769 21.7461 27.769C21.7461 27.769 21.7529 28.219 21.5303 28.4585C21.2881 28.7195 20.8145 28.7717 20.8145 28.7717Z" transform="translate(0 0.762695)" fill="#004391"/>
</svg>
