<svg width="60" height="60" viewBox="0 0 60 60" fill="none" xmlns="http://www.w3.org/2000/svg">
<path d="M0.245143 8.4774L0.00993572 5.59611C-0.107668 4.30247 0.833162 3.24404 2.068 3.12643L37.7019 0.00993549C38.9368 -0.107668 40.054 0.833162 40.1716 2.068L40.7596 8.88902" transform="translate(12.3828 1.6449)" stroke="#FFFFFF" stroke-width="2" stroke-miterlimit="10" stroke-linejoin="round"/>
<path d="M0 3.64572V3.58691L37.4568 2.24311e-07L37.8096 3.58691" transform="translate(13.2148 6.12378)" stroke="#FFFFFF" stroke-width="2" stroke-miterlimit="10" stroke-linejoin="round"/>
<path d="M42.3373 8.97245e-07V6.93862C42.3373 8.87908 40.7497 10.4667 38.8092 10.4667H1.76406C0.764424 10.4667 0 9.70231 0 8.70267" transform="translate(12.0391 30.9971)" stroke="#FFFFFF" stroke-width="2" stroke-miterlimit="10" stroke-linejoin="round"/>
<path d="M0 4.48623e-07V28.2249" transform="translate(12.0391 11.4749)" stroke="#FFFFFF" stroke-width="2" stroke-miterlimit="10" stroke-linejoin="round"/>
<path d="M42.3373 11.878V3.52811C42.3373 1.58765 40.7497 -1.12156e-07 38.8092 -1.12156e-07H1.76406C0.764424 -1.12156e-07 0 0.764425 0 1.76406" transform="translate(12.0391 9.71069)" stroke="#FFFFFF" stroke-width="2" stroke-miterlimit="10" stroke-linejoin="round"/>
<path d="M0 7.52664H34.8695C35.7515 7.52664 36.4572 6.82102 36.4572 5.93899V2.52848V8.97245e-07" transform="translate(14.6855 30.703)" stroke="#FFFFFF" stroke-width="2" stroke-miterlimit="10" stroke-linecap="round" stroke-linejoin="round" stroke-dasharray="4 4"/>
<path d="M0 2.24311e-07H34.8695C35.7515 2.24311e-07 36.4572 0.705622 36.4572 1.58765V8.34986" transform="translate(14.6855 12.886)" stroke="#FFFFFF" stroke-width="2" stroke-miterlimit="10" stroke-linecap="round" stroke-linejoin="round" stroke-dasharray="4 4"/>
<path d="M12.5441 0.705623L14.4846 0.882028L13.6614 10.2315L12.5441 10.1139L10.7801 9.99632L4.31186 9.4083C1.72457 9.17309 -0.21589 6.87982 0.0193177 4.29254C0.254525 1.82286 2.31259 4.48623e-07 4.72347 4.48623e-07C4.84107 4.48623e-07 5.01748 4.48623e-07 5.13508 4.48623e-07L10.7213 0.470415L12.5441 0.705623Z" transform="translate(41.832 20.8831)" stroke="#FFFFFF" stroke-width="2" stroke-miterlimit="10" stroke-linejoin="round"/>
<path d="M1.76406 4.48623e-07C1.76406 0.999632 0.999632 1.76406 0 1.76406" transform="translate(46.7324 25.8812)" stroke="#FFFFFF" stroke-width="2" stroke-miterlimit="10" stroke-linecap="round" stroke-linejoin="round"/>
<path d="M0 2.35208C0 1.05843 1.05843 4.48623e-07 2.35207 4.48623e-07" transform="translate(44.3799 23.5292)" stroke="#FFFFFF" stroke-width="2" stroke-miterlimit="10" stroke-linecap="round" stroke-linejoin="round"/>
<path d="M6.46821 12.9364C10.0405 12.9364 12.9364 10.0405 12.9364 6.4682C12.9364 2.89591 10.0405 0 6.46821 0C2.89591 0 0 2.89591 0 6.4682C0 10.0405 2.89591 12.9364 6.46821 12.9364Z" transform="translate(1.45508 42.6396)" stroke="#FFFFFF" stroke-width="2" stroke-miterlimit="10" stroke-linejoin="round"/>
<path d="M3.76332 0.176406C4.17493 0.0588028 4.58655 -8.97245e-07 4.99816 -8.97245e-07C7.93825 -8.97245e-07 10.2903 2.35207 10.2903 5.29217C10.2903 8.23226 7.93825 10.5843 4.99816 10.5843C2.70489 10.5843 0.764424 9.11429 0 7.05622" transform="translate(10.5703 47.873)" stroke="#FFFFFF" stroke-width="2" stroke-miterlimit="10" stroke-linejoin="round"/>
<path d="M4.11613 8.23226C6.38941 8.23226 8.23226 6.3894 8.23226 4.11613C8.23226 1.84285 6.38941 0 4.11613 0C1.84285 0 0 1.84285 0 4.11613C0 6.3894 1.84285 8.23226 4.11613 8.23226Z" transform="translate(29.0918 46.7559)" stroke="#FFFFFF" stroke-width="2" stroke-miterlimit="10" stroke-linejoin="round"/>
</svg>
