<svg width="25" height="25" viewBox="0 0 25 25" fill="none" xmlns="http://www.w3.org/2000/svg">
<path d="M12.5 25C19.4036 25 25 19.4036 25 12.5C25 5.59644 19.4036 0 12.5 0C5.59644 0 0 5.59644 0 12.5C0 19.4036 5.59644 25 12.5 25Z" fill="white"/>
<path d="M17 2.34966C17 1.05188 15.8626 2.07346e-07 14.4595 2.07346e-07H2.54005C1.13715 2.07346e-07 -5.60773e-08 1.05214 -5.60773e-08 2.34966V8.65034C-5.60773e-08 9.94812 1.13737 11 2.54005 11H14.4592C15.8627 11 16.9998 9.94786 16.9998 8.65034L17 2.34966ZM6.79946 8.15801V2.24016L11.6545 5.19922L6.79946 8.15801Z" transform="translate(4 7)" fill="#004391"/>
</svg>
