<svg width="200" height="49" viewBox="0 0 200 49" fill="none" xmlns="http://www.w3.org/2000/svg">
<path d="M4.47861 5.80231C3.47594 5.20889 2.40642 4.61547 1.20321 4.02206C2.33957 4.74734 3.47594 5.6045 4.47861 6.46166C8.15508 9.75843 10.762 13.9783 12.8342 18.7256L15.4412 18.33C13.369 13.7805 10.2273 9.36281 4.47861 5.80231ZM0 8.17598C1.67112 9.8903 3.14171 11.9343 4.41177 14.1102C5.08021 15.2311 5.68182 16.352 6.21658 17.5388L8.82353 18.1322C7.55348 15.6926 6.01604 13.6486 4.41177 11.8684C3.07487 10.4837 1.60428 9.23094 0 8.17598ZM4.47861 0.989029C3.40909 0.593417 2.33957 0.329676 1.20321 -5.03047e-07C2.33957 0.461547 3.40909 0.98903 4.47861 1.58245C10.2273 4.81328 14.8396 9.69249 17.8476 17.0113L19.7193 15.297C16.4439 8.24192 11.3636 3.42864 4.47861 0.989029Z" transform="translate(34.0898 20.3184)" fill="#004391"/>
<path d="M5.08022 0.593418C3.47594 0.263742 1.73797 0.0659348 -1.01997e-06 -5.03047e-07C1.73797 0.329676 3.47594 0.791224 5.08022 1.38464C12.5 3.95612 18.1818 8.90127 21.5241 17.1432L22.3262 14.1761C18.3824 5.93418 12.2995 2.044 5.08022 0.593418Z" transform="translate(33.4883 16.3618)" fill="#004391"/>
<path d="M26.9385 4.81328C25.6016 3.82425 24.2647 2.83522 23.0615 1.78025C22.5267 1.31871 22.0588 0.857159 21.5909 0.395612L19.1845 3.14404e-08C20.4546 0.923094 21.7246 1.78025 23.0615 2.63741C24.3316 3.42864 25.6016 4.15392 26.9385 4.81328ZM26.0695 7.51663C25.0669 6.98914 24.0642 6.39573 23.0615 5.86824C19.8529 4.02205 16.8449 1.97806 14.7727 3.14404e-08L11.8316 0.395612C15.2406 2.90115 18.984 4.87921 23.0615 6.46166C24.0642 6.79134 25.0669 7.18695 26.0695 7.51663ZM23.1283 13.6486C14.4385 11.7365 6.35027 8.70346 2.60695 4.61547L0 7.18695C5.88236 11.7365 13.7032 13.9783 23.1283 14.5058C24.7326 14.5717 26.3369 14.6376 28.008 14.6376C26.3369 14.308 24.7326 13.9783 23.1283 13.6486ZM26.6043 10.9453C25.4679 10.5497 24.2647 10.0881 23.0615 9.69249C17.4465 7.51663 11.7647 4.81328 8.28877 1.45058L5.48129 2.76928C9.35829 6.06605 15.3075 8.43972 23.1283 10.22C24.2647 10.4837 25.4011 10.6815 26.6043 10.9453Z" transform="translate(0 1.46045)" fill="#004391"/>
<path d="M9.42514 10.6156C11.2299 8.63753 12.7674 6.5276 14.1043 4.15393C14.7059 3.09896 15.2406 2.044 15.7754 0.923095C15.2406 1.64838 14.7059 2.37367 14.1043 3.09896C12.7005 4.74734 11.1631 6.32979 9.42514 7.78037C6.68449 10.0881 3.54278 12.1321 2.54993e-07 13.9783L0.534759 17.4729C4.0107 15.6267 6.95187 13.3189 9.42514 10.6156ZM9.42514 1.91212C10.0267 1.31871 10.5615 0.659354 11.0963 5.03047e-07C10.5615 0.395612 10.0267 0.857159 9.42514 1.25277C7.01872 2.96709 4.34492 4.54954 1.47059 5.86824L0.401069 8.7694C3.87701 6.7254 7.01872 4.41767 9.42514 1.91212ZM14.1043 17.2091C17.5802 12.7255 19.7193 7.31882 20.4545 0.923095C19.1177 5.20889 16.9786 9.03314 14.1043 12.3958C12.7005 14.0442 11.1631 15.5607 9.42514 17.0113C7.2861 18.7916 4.87968 20.4399 2.13904 21.8905L4.47861 25.517C6.28342 24.462 7.8877 23.2752 9.42514 22.0224C11.2299 20.5718 12.7674 18.9894 14.1043 17.2091ZM24.7326 0.0659348C24.5989 9.56062 20.9893 17.4729 14.1043 23.8686C12.7005 25.1873 11.0963 26.4401 9.42514 27.6269C8.89038 28.0225 8.35562 28.3522 7.75401 28.7478L9.42514 29.8687L12.1658 31.7149C12.8342 31.1874 13.5027 30.7259 14.1043 30.1984C23.3957 22.2861 27.7406 11.6706 24.7326 0.0659348Z" transform="translate(6.41797 17.2852)" fill="#004391"/>
<path d="M7.01792 1.52656C7.61953 1.39469 8.35482 1.32875 9.02327 1.39469L7.01792 0.339724L6.48317 0.0100476C-0.268173 -0.319629 -1.204 7.52667 1.20241 14.2521C0.935035 7.13106 3.14092 2.44965 7.01792 1.52656ZM12.9671 4.88926C13.1677 4.88926 13.3013 4.88926 13.5019 4.88926L12.9671 4.42771L11.6971 3.24088C10.6944 3.17494 9.82541 3.37275 9.02327 3.70243C8.22113 4.0321 7.55268 4.55959 7.01792 5.28487C5.61418 7.06513 4.94573 10.0322 5.01258 13.9224C5.54734 11.8125 6.21579 10.0982 7.01792 8.71351C7.61953 7.72448 8.28798 6.93326 9.02327 6.33984C10.1596 5.41674 11.4965 4.9552 12.9671 4.88926ZM16.5768 8.77945L15.5072 7.13106C14.5714 7.13106 13.7024 7.32887 13.034 7.72448C11.0955 8.77945 9.89226 11.0212 9.09012 14.0543V14.1202C10.2265 12.274 11.5634 10.8234 13.034 9.90035C14.1035 9.17506 15.2399 8.77945 16.5768 8.77945ZM17.6463 11.4828C15.7746 12.0103 14.2372 13.263 12.9671 15.0433C12.7666 15.307 12.6329 15.5708 12.4324 15.8345C12.6329 15.6367 12.7666 15.5048 12.9671 15.373C14.3709 14.1202 15.9083 13.1971 17.7131 12.9993L17.6463 11.4828Z" transform="translate(29.4121)" fill="#DF5E16"/>
<path d="M30.4144 4.81328C30.3476 5.07702 30.3476 5.34076 30.2808 5.6045C30.2139 6.32979 30.1471 7.05508 30.2139 7.91224C30.2139 8.63753 30.2139 9.23094 30.2808 9.82436C30.3476 10.154 30.3476 10.4178 30.4144 10.6815V4.81328ZM30.4144 0.197806L24.9332 7.58256L30.4144 14.9014V15.1651H24.7995L22.0588 10.9453L19.3182 15.1651H13.9706L19.2513 7.51663L13.8369 0.131871H19.5187L22.0588 4.15393L24.5989 0.131871L30.4144 0.197806ZM13.369 15.2311V11.6046H6.01604C5.88235 11.6046 5.68182 11.6046 5.54813 11.6046C5.34759 11.6046 5.21391 11.5387 5.08022 11.4068C5.01337 11.3409 4.94652 11.2749 4.94652 11.209C4.87968 11.1431 4.87968 11.0112 4.87968 10.8793V9.23095H13.1016V6.00011H4.87968V4.87921C4.87968 4.81328 4.87968 4.74734 4.87968 4.61547C4.87968 4.54954 4.87968 4.41767 4.94652 4.35173C5.01337 4.2858 5.01337 4.15392 5.08022 4.08799C5.14706 4.02205 5.28075 3.95612 5.41444 3.95612C5.54813 3.89018 5.68182 3.89018 5.81551 3.89018H13.3021V0.263741H2.47326C2.27273 0.263741 2.07219 0.263742 1.87166 0.329677C1.67112 0.329677 1.47059 0.395612 1.27005 0.527482C1.06952 0.593418 0.868982 0.725289 0.668447 0.923095C0.467912 1.1209 0.334224 1.25277 0.267379 1.45058C0.200534 1.64838 0.133692 1.84619 0.066847 2.04399C2.03696e-06 2.2418 -2.03995e-06 2.43961 -2.03995e-06 2.63741V12.7915C-2.03995e-06 13.0552 -2.03995e-06 13.253 -2.03995e-06 13.4508C-2.03995e-06 13.6486 0.0668449 13.8464 0.200535 14.0442C0.26738 14.242 0.467912 14.4398 0.668447 14.6376C0.868982 14.7695 1.06952 14.9014 1.27005 14.9673C1.47059 15.0333 1.67112 15.0992 1.87166 15.0992C2.07219 15.0992 2.27273 15.0992 2.47326 15.0992L13.369 15.2311ZM136.23 15.2311V11.6046H128.877C128.743 11.6046 128.543 11.6046 128.409 11.6046C128.209 11.6046 128.075 11.5387 127.941 11.4068C127.874 11.3409 127.808 11.2749 127.808 11.209C127.741 11.1431 127.741 11.0112 127.741 10.8793V9.23095H135.963V6.00011H127.741V4.87921C127.741 4.81328 127.741 4.74734 127.741 4.61547C127.741 4.54954 127.741 4.41767 127.808 4.35173C127.808 4.2858 127.874 4.15392 127.941 4.08799C128.008 4.02205 128.142 3.95612 128.275 3.95612C128.409 3.89018 128.543 3.89018 128.677 3.89018H136.163V0.263741H125.334C125.134 0.263741 124.933 0.263742 124.733 0.329677C124.532 0.329677 124.332 0.395612 124.064 0.527482C123.864 0.593418 123.663 0.725289 123.463 0.923095C123.262 1.1209 123.128 1.25277 123.062 1.45058C122.995 1.64838 122.928 1.84619 122.861 2.04399C122.861 2.2418 122.794 2.43961 122.794 2.63741V12.7915C122.794 13.0552 122.794 13.253 122.794 13.4508C122.794 13.6486 122.861 13.8464 122.995 14.1102C123.062 14.308 123.262 14.5058 123.463 14.7036C123.663 14.8354 123.864 14.9673 124.064 15.0333C124.265 15.0992 124.465 15.1651 124.666 15.1651C124.866 15.1651 125.067 15.1651 125.267 15.1651L136.23 15.2311ZM116.578 15.2311V3.95612H121.992V0.197806H106.35V3.95612H111.765V15.2311H116.578ZM105.481 0.197806H101.738V9.16501C101.738 9.23094 101.738 9.23095 101.738 9.29688C101.738 9.36282 101.738 9.42875 101.671 9.42875C101.604 9.49469 101.604 9.49469 101.471 9.49469C101.404 9.49469 101.337 9.42875 101.203 9.36281C101.136 9.29688 101.07 9.23094 101.003 9.09907L95.5214 1.38464C95.3209 1.05497 95.0535 0.791224 94.7193 0.593418C94.4519 0.395612 94.1845 0.263741 93.8503 0.197806C93.5829 0.13187 93.2487 0.0659356 92.9813 2.51523e-07C92.7139 2.51523e-07 92.4465 2.51523e-07 92.246 2.51523e-07C91.7781 2.51523e-07 91.377 0.0659355 90.976 0.131871C90.5749 0.197806 90.2407 0.395612 89.9064 0.593418C89.5722 0.791224 89.3048 1.05497 89.1712 1.45058C88.9706 1.78025 88.9038 2.17587 88.9038 2.70335V15.2311H92.6471V6.32979C92.6471 6.19792 92.6471 6.06605 92.7139 6.00011C92.7808 5.93418 92.7808 5.93418 92.8476 5.86824C92.9145 5.86824 92.9145 5.86824 92.9813 5.86824C93.0482 5.86824 93.115 5.93418 93.1818 6.00011C93.2487 6.06605 93.3155 6.13199 93.3824 6.26386L98.8637 13.9124C99.0642 14.242 99.3316 14.5058 99.599 14.7036C99.8663 14.9014 100.134 15.0333 100.401 15.1651C100.668 15.297 100.936 15.3629 101.27 15.3629C101.537 15.4289 101.872 15.4289 102.139 15.4289C102.741 15.4289 103.275 15.3629 103.676 15.1651C104.078 15.0333 104.412 14.8354 104.612 14.6376C104.88 14.3739 105.013 14.1761 105.147 13.9124C105.281 13.6486 105.348 13.4508 105.348 13.1871C105.348 12.9233 105.414 12.7915 105.414 12.7255L105.481 0.197806ZM87.5 15.2311V11.6046H80.1471C80.0134 11.6046 79.8129 11.6046 79.6792 11.6046C79.4786 11.6046 79.3449 11.5387 79.2781 11.4068C79.2113 11.3409 79.1444 11.2749 79.1444 11.209C79.1444 11.1431 79.0776 11.0112 79.0776 10.8793V9.23095H87.2995V6.00011H79.0776V4.87921C79.0776 4.81328 79.0776 4.74734 79.0776 4.61547C79.0776 4.54954 79.0776 4.41767 79.1444 4.35173C79.2113 4.2858 79.2113 4.15392 79.2781 4.08799C79.3449 4.02205 79.4786 3.95612 79.6123 3.95612C79.746 3.89018 79.8797 3.89018 80.0134 3.89018H87.4332V0.263741H76.6043C76.4038 0.263741 76.2032 0.263742 76.0027 0.329677C75.8022 0.329677 75.6016 0.395612 75.4011 0.527482C75.2006 0.593418 75 0.725289 74.7995 0.923095C74.599 1.1209 74.4653 1.25277 74.3984 1.45058C74.3316 1.64838 74.2647 1.84619 74.1979 2.04399C74.131 2.2418 74.131 2.43961 74.131 2.63741V12.7915C74.131 13.0552 74.131 13.253 74.131 13.4508C74.131 13.6486 74.1979 13.8464 74.3316 14.1102C74.3984 14.308 74.599 14.5058 74.7995 14.7036C75 14.8354 75.2006 14.9673 75.4011 15.0333C75.6016 15.0992 75.8022 15.1651 76.0027 15.1651C76.2032 15.1651 76.4038 15.1651 76.6043 15.1651L87.5 15.2311ZM73.4626 15.2311V11.4727H65.6417C65.508 11.4727 65.3744 11.4727 65.2407 11.4727C65.107 11.4727 64.9733 11.4068 64.9064 11.3409C64.8396 11.2749 64.7728 11.209 64.7728 11.0771C64.7728 11.0112 64.7059 10.8793 64.7059 10.8134C64.7059 10.7475 64.7059 10.6815 64.7059 10.6156V0.197806H59.8262V13.3189C59.8262 13.5167 59.8931 13.7145 59.8931 13.9124C59.9599 14.1102 60.0268 14.242 60.1604 14.4398C60.2273 14.5717 60.361 14.7036 60.4947 14.8354C60.6284 14.9673 60.762 15.0333 60.9626 15.0992C61.1631 15.1651 61.3637 15.2311 61.4973 15.2311C61.6979 15.297 61.8984 15.297 62.0989 15.297L73.4626 15.2311ZM57.9546 15.2311V11.6046H50.6016C50.4679 11.6046 50.2674 11.6046 50.1337 11.6046C49.9332 11.6046 49.7995 11.5387 49.7326 11.4068C49.6658 11.3409 49.5989 11.2749 49.5989 11.209C49.5321 11.1431 49.5321 11.0112 49.5321 10.8793V9.23095H57.754V6.00011H49.5321V4.87921C49.5321 4.81328 49.5321 4.74734 49.5321 4.61547C49.5321 4.54954 49.5321 4.41767 49.5989 4.35173C49.6658 4.2858 49.6658 4.15392 49.7995 4.08799C49.8663 4.02205 50 3.95612 50.1337 3.95612C50.2674 3.89018 50.4011 3.89018 50.5348 3.89018H58.0214V0.263741H47.1925C46.992 0.263741 46.7915 0.263742 46.5909 0.329677C46.3904 0.395612 46.1898 0.395612 45.9225 0.527482C45.7219 0.593418 45.5214 0.725289 45.3209 0.923095C45.1203 1.1209 44.9866 1.25277 44.9198 1.45058C44.853 1.64838 44.7861 1.84619 44.7193 2.04399C44.6524 2.2418 44.6524 2.43961 44.6524 2.63741V12.7915C44.6524 13.0552 44.6524 13.253 44.6524 13.4508C44.6524 13.6486 44.7193 13.8464 44.853 14.1102C44.9198 14.308 45.1203 14.5058 45.3209 14.7036C45.5214 14.8354 45.7219 14.9673 45.9225 15.0333C46.123 15.0992 46.3235 15.1651 46.5241 15.1651C46.7246 15.1651 46.9251 15.1651 47.1257 15.1651L57.9546 15.2311ZM30.4144 10.6815C30.4813 10.8793 30.4813 11.0771 30.5481 11.2749C30.6818 11.6706 30.8155 12.0662 30.9492 12.3958C31.1497 12.7255 31.3503 13.0552 31.5508 13.3189C31.9519 13.8464 32.4198 14.1761 32.8877 14.4398C33.3556 14.7036 33.9572 14.9014 34.5588 14.9673C35.1604 15.0992 35.8957 15.0992 36.631 15.0992H43.3155V11.4727H39.1043C38.7032 11.4727 38.3021 11.4727 37.9679 11.4727C37.5669 11.4727 37.2326 11.4068 36.9652 11.3409C36.6979 11.2749 36.3636 11.1431 36.0963 11.0112C35.8289 10.8793 35.6284 10.6156 35.4947 10.3518C35.4278 10.2859 35.4278 10.154 35.361 9.95623C35.2941 9.75843 35.2273 9.49469 35.2273 9.16501C35.1604 8.83533 35.1604 8.37379 35.1604 7.8463C35.1604 7.6485 35.1604 7.45069 35.1604 7.25289C35.1604 6.98914 35.2273 6.79134 35.2273 6.5276C35.2941 6.26386 35.2941 6.06605 35.361 5.80231C35.4278 5.53857 35.4947 5.34076 35.6283 5.14295C35.8289 4.87921 35.9626 4.61547 36.2299 4.4836C36.4305 4.2858 36.6979 4.21986 37.0321 4.15393C37.2995 4.08799 37.6337 4.02206 37.9679 4.02206C38.3021 4.02206 38.7032 4.02206 39.1043 4.02206H43.115V0.263741H36.7647C36.3636 0.263741 35.8957 0.263742 35.4278 0.329677C34.9599 0.395612 34.492 0.461547 34.0241 0.593418C33.5562 0.725289 33.0882 0.923094 32.6872 1.18684C32.2861 1.45058 31.885 1.78025 31.5508 2.2418C31.2166 2.70335 30.9492 3.23083 30.7487 3.75831C30.615 4.08799 30.5481 4.4836 30.4813 4.87921L30.4144 10.6815ZM30.4144 15.2311V14.9673L30.615 15.2311H30.4144Z" transform="translate(63.6367 7.6582)" fill="#004391"/>
<path d="M3.67647 5.67044V5.40669C3.67647 5.34076 3.60963 5.27483 3.54278 5.27483H3.47594C3.40909 5.27483 3.34225 5.27483 3.20856 5.27483C3.14171 5.27483 3.00802 5.27483 2.87433 5.27483C2.74064 5.27483 2.6738 5.27483 2.54011 5.27483H2.20588C2.00535 5.27483 1.80482 5.27482 1.67113 5.20889C1.53744 5.14295 1.3369 5.07702 1.27005 4.94515C1.13636 4.81328 1.06952 4.61547 1.00268 4.41767C0.935831 4.21986 0.868983 3.89018 0.868983 3.56051V2.50554C0.868983 2.17587 0.868986 1.91213 1.00268 1.64838C1.06952 1.45058 1.20321 1.25277 1.27005 1.1209C1.40374 0.989029 1.53744 0.85716 1.67113 0.85716C1.80482 0.791224 2.00535 0.791223 2.20588 0.791223C2.33957 0.791223 2.40642 0.791223 2.54011 0.791223C2.6738 0.791223 2.80749 0.791223 2.87433 0.791223C3.00802 0.791223 3.07487 0.791223 3.20856 0.791223C3.34225 0.791223 3.40909 0.791223 3.47594 0.791223C3.54278 0.791223 3.54278 0.791223 3.54278 0.791223V0.725289V0.395612C3.54278 0.329677 3.47594 0.329678 3.40909 0.329678C3.20856 0.329678 3.00802 0.263741 2.80749 0.263741C2.60695 0.263741 2.33957 0.197806 2.07219 0.197806C1.80481 0.197806 1.60428 0.263742 1.3369 0.329678C1.06952 0.395613 0.868986 0.527483 0.668451 0.725289C0.467917 0.923094 0.334224 1.1209 0.200534 1.45058C0.0668439 1.78025 2.03995e-06 2.17586 2.03995e-06 2.57148V3.62644C2.03995e-06 4.08799 0.0668439 4.4836 0.200534 4.74734C0.334224 5.07702 0.467917 5.27483 0.668451 5.47263C0.868986 5.67044 1.06952 5.80231 1.3369 5.86824C1.60428 5.93418 1.80481 6.00011 2.07219 6.00011H2.47326C2.60695 6.00011 2.6738 6.00011 2.80749 6.00011C2.94118 6.00011 3.00802 6.00011 3.07487 5.93418C3.14171 5.93418 3.2754 5.93418 3.34225 5.86824C3.40909 5.86824 3.40909 5.86824 3.47594 5.80231C3.60963 5.80231 3.67647 5.73637 3.67647 5.67044ZM8.08824 3.3627H6.35027L7.08556 0.85716C7.08556 0.791224 7.15241 0.725289 7.21925 0.725289C7.2861 0.725289 7.35295 0.791224 7.35295 0.85716L8.08824 3.3627ZM9.42514 5.73637L8.02139 0.725289C7.95455 0.593418 7.95455 0.527482 7.8877 0.461546C7.82086 0.395611 7.75401 0.329676 7.68717 0.263741C7.62033 0.197805 7.55348 0.197806 7.48663 0.197806C7.41979 0.197806 7.35294 0.197806 7.2861 0.197806C7.21925 0.197806 7.15241 0.197806 7.08556 0.197806C7.01872 0.197806 6.95187 0.263741 6.88503 0.263741C6.81818 0.329676 6.75134 0.329676 6.6845 0.461546C6.61765 0.527482 6.61765 0.659353 6.5508 0.725289L5.08022 5.73637V5.80231C5.08022 5.86824 5.14706 5.93418 5.2139 5.93418H5.68182H5.74867L5.81551 5.86824L6.35027 4.08799H8.35562L8.82353 5.86824C8.82353 5.93418 8.82353 5.93418 8.89038 5.93418L8.95722 6.00011H9.42514C9.35829 5.93418 9.42514 5.86824 9.42514 5.73637C9.42514 5.80231 9.42514 5.80231 9.42514 5.73637ZM14.4385 1.71432C14.4385 1.91212 14.3717 2.10993 14.3048 2.17587C14.238 2.30774 14.1043 2.43961 13.9706 2.50554C13.8369 2.57148 13.6364 2.63741 13.4358 2.63741C13.2353 2.63741 12.9679 2.70335 12.7005 2.70335H11.7647V0.791223C11.8316 0.791223 11.8984 0.791223 11.9652 0.791223C12.0321 0.791223 12.0989 0.725289 12.2326 0.725289C12.2995 0.725289 12.4332 0.725289 12.5 0.725289H12.7005C13.2353 0.725289 13.6364 0.791223 13.9037 0.923094C14.3048 1.05496 14.4385 1.31871 14.4385 1.71432ZM15.2406 5.73637L13.8369 3.23083C14.0374 3.16489 14.1711 3.09896 14.3717 3.03302C14.5054 2.96709 14.639 2.83522 14.7727 2.70335C14.9064 2.57148 14.9733 2.43961 15.0401 2.2418C15.107 2.10993 15.107 1.91212 15.107 1.71432C15.107 1.45058 15.0401 1.18684 14.9064 0.989031C14.7727 0.791225 14.639 0.659354 14.4385 0.527483C14.238 0.395612 13.9706 0.329676 13.7032 0.263741C13.4358 0.197805 13.1016 0.197806 12.8342 0.197806C12.7005 0.197806 12.5668 0.197806 12.4332 0.197806C12.2995 0.197806 12.1658 0.197806 12.0321 0.197806C11.8984 0.197806 11.7647 0.197806 11.6979 0.197806C11.5642 0.197806 11.4973 0.197806 11.3636 0.197806C11.2968 0.197806 11.2299 0.263741 11.2299 0.263741C11.2299 0.263741 11.1631 0.329677 11.1631 0.395612V5.80231C11.1631 5.86824 11.1631 5.86824 11.2299 5.93418L11.2968 6.00011H11.6979C11.7647 6.00011 11.7647 6.00011 11.7647 5.93418C11.7647 5.86824 11.8316 5.86824 11.8316 5.80231V3.42864H12.9679L14.4385 5.86824C14.4385 5.93418 14.5054 5.93418 14.5054 5.93418C14.5054 5.93418 14.5722 5.93418 14.639 5.93418H15.107C15.1738 5.93418 15.2406 5.93418 15.2406 5.80231C15.2406 5.80231 15.2406 5.80231 15.2406 5.73637ZM20.1872 5.80231V5.40669C20.1872 5.34076 20.1872 5.27483 20.1203 5.27483H18.6497C18.4492 5.27483 18.2487 5.27482 18.1818 5.20889C18.0481 5.20889 17.9813 5.14295 17.9144 5.07702C17.8476 5.01108 17.7808 4.94515 17.7808 4.87921C17.7808 4.81328 17.7139 4.68141 17.7139 4.54954V3.3627H20.1203C20.1872 3.3627 20.1872 3.3627 20.1872 3.29677C20.1872 3.23083 20.254 3.23083 20.254 3.1649V2.83522C20.254 2.76928 20.254 2.76928 20.1872 2.70335C20.1872 2.63741 20.1203 2.63741 20.1203 2.63741H17.7139V1.51651C17.7139 1.38464 17.7139 1.25277 17.7139 1.1209C17.7139 0.989029 17.7808 0.923095 17.8476 0.85716C17.9144 0.791224 17.9813 0.725289 18.115 0.725289C18.2487 0.659353 18.3824 0.659354 18.5829 0.659354H20.0535C20.1203 0.659354 20.1203 0.593418 20.1203 0.527483V0.13187V0.0659353L20.0535 1.00609e-06H18.516C17.9813 1.00609e-06 17.5802 0.131872 17.3128 0.329678C17.0455 0.527484 16.9118 0.923094 16.9118 1.38464V4.2858C16.9118 4.81328 17.0455 5.14295 17.3128 5.40669C17.5802 5.6045 17.9813 5.73637 18.516 5.73637H20.0535C20.0535 5.73637 20.1203 5.73637 20.1203 5.67044C20.1872 5.86824 20.1872 5.86824 20.1872 5.80231ZM25.3342 5.80231V5.40669C25.3342 5.34076 25.2674 5.27483 25.2674 5.27483H23.7968C23.5963 5.27483 23.3957 5.27482 23.3289 5.20889C23.1952 5.20889 23.1284 5.14295 23.0615 5.07702C22.9947 5.01108 22.9278 4.94515 22.9278 4.87921C22.9278 4.81328 22.9278 4.68141 22.9278 4.54954V3.3627H25.3342C25.4011 3.3627 25.4011 3.3627 25.4011 3.29677C25.4679 3.23083 25.4679 3.23083 25.4679 3.1649V2.83522C25.4679 2.76928 25.4679 2.76928 25.4011 2.70335C25.4011 2.63741 25.3342 2.63741 25.3342 2.63741H22.9278V1.51651C22.9278 1.38464 22.9278 1.25277 22.9278 1.1209C22.9278 0.989029 22.9947 0.923095 23.0615 0.85716C23.1284 0.791224 23.1952 0.725289 23.3289 0.725289C23.4626 0.659353 23.5963 0.659354 23.7968 0.659354H25.2674C25.3342 0.659354 25.3342 0.593418 25.3342 0.527483V0.13187V0.0659353L25.2674 1.00609e-06H23.73C23.1952 1.00609e-06 22.7941 0.131872 22.5267 0.329678C22.2594 0.527484 22.1257 0.923093 22.1257 1.45058V4.35173C22.1257 4.87921 22.2594 5.20889 22.5267 5.47263C22.7941 5.67044 23.1952 5.80231 23.73 5.80231H25.2674C25.2674 5.80231 25.3342 5.80231 25.3342 5.73637C25.3342 5.86824 25.4011 5.86824 25.3342 5.80231ZM30.615 1.71432C30.615 1.91212 30.5481 2.10993 30.4813 2.17587C30.4144 2.30774 30.2808 2.43961 30.1471 2.50554C30.0134 2.57148 29.8128 2.63741 29.6123 2.63741C29.4118 2.63741 29.2112 2.70335 28.9439 2.70335H28.008V0.791223C28.0749 0.791223 28.1417 0.791223 28.2086 0.791223C28.2754 0.791223 28.3423 0.725289 28.4759 0.725289C28.5428 0.725289 28.6765 0.725289 28.7433 0.725289H28.9439C29.4786 0.725289 29.8797 0.791223 30.1471 0.923094C30.4144 1.05496 30.615 1.31871 30.615 1.71432ZM31.3503 5.73637L29.9465 3.23083C30.1471 3.16489 30.2808 3.09896 30.4813 3.03302C30.615 2.96709 30.7487 2.83522 30.8824 2.70335C31.0161 2.57148 31.0829 2.43961 31.1497 2.2418C31.2166 2.10993 31.2166 1.91212 31.2166 1.71432C31.2166 1.45058 31.1497 1.18684 31.0161 0.989031C30.8824 0.791225 30.7487 0.659354 30.5481 0.527483C30.3476 0.395612 30.0802 0.329676 29.8128 0.263741C29.5455 0.197805 29.2112 0.197806 28.9439 0.197806C28.8102 0.197806 28.6765 0.197806 28.5428 0.197806C28.4091 0.197806 28.2754 0.197806 28.1417 0.197806C28.008 0.197806 27.8743 0.197806 27.8075 0.197806C27.6738 0.197806 27.607 0.197806 27.4733 0.197806C27.4064 0.197806 27.3396 0.263741 27.3396 0.263741C27.3396 0.263741 27.2727 0.329677 27.2727 0.395612V5.80231C27.2727 5.86824 27.2727 5.86824 27.3396 5.93418L27.4064 6.00011H27.8075C27.8743 6.00011 27.8743 6.00011 27.8743 5.93418C27.8743 5.86824 27.9412 5.86824 27.9412 5.80231V3.42864H29.0776L30.5481 5.86824C30.5481 5.93418 30.615 5.93418 30.615 5.93418C30.615 5.93418 30.6818 5.93418 30.7487 5.93418H31.2166C31.2834 5.93418 31.3503 5.93418 31.3503 5.80231C31.4171 5.80231 31.3503 5.80231 31.3503 5.73637ZM38.4358 3.3627H36.6979L37.4332 0.85716C37.4332 0.791224 37.5 0.725289 37.5669 0.725289C37.6337 0.725289 37.7005 0.791224 37.7005 0.85716L38.4358 3.3627ZM39.7727 5.73637L38.369 0.725289C38.3021 0.593418 38.3022 0.527482 38.2353 0.461546C38.1685 0.395611 38.1016 0.329676 38.0348 0.263741C37.9679 0.197805 37.9011 0.197806 37.7674 0.197806C37.7005 0.197806 37.6337 0.197806 37.5669 0.197806C37.5 0.197806 37.4332 0.197806 37.3663 0.197806C37.2995 0.197806 37.2326 0.263741 37.0989 0.263741C37.0321 0.329676 36.9653 0.329676 36.8984 0.461546C36.8316 0.527482 36.8316 0.659353 36.7647 0.725289L35.2941 5.73637V5.80231C35.2941 5.86824 35.361 5.93418 35.4278 5.93418H35.8957H35.9626L36.0294 5.86824L36.5642 4.08799H38.5695L39.0374 5.86824C39.0374 5.93418 39.0374 5.93418 39.1043 5.93418L39.1711 6.00011H39.6391C39.7059 5.93418 39.7727 5.86824 39.7727 5.73637C39.7727 5.80231 39.7727 5.80231 39.7727 5.73637ZM45.4546 5.73637V0.329678C45.4546 0.263742 45.4546 0.263741 45.3877 0.263741C45.3877 0.197805 45.3209 0.197806 45.3209 0.197806H44.9198C44.853 0.197806 44.8529 0.197805 44.8529 0.263741L44.7861 0.329678V4.87921L42.5134 0.329678C42.4465 0.263742 42.4465 0.263742 42.3797 0.197806C42.3128 0.197806 42.3128 0.13187 42.1792 0.13187H41.7781C41.7112 0.13187 41.6444 0.131871 41.6444 0.197806C41.5776 0.263742 41.5776 0.329678 41.5776 0.329678V5.80231C41.5776 5.86824 41.5776 5.86824 41.6444 5.86824H41.7112H42.1123C42.1792 5.86824 42.1792 5.86824 42.1792 5.80231C42.1792 5.80231 42.246 5.73637 42.246 5.67044V1.1209L44.5856 5.67044C44.6524 5.73637 44.7193 5.80231 44.8529 5.80231H45.3209C45.3877 5.80231 45.3877 5.80231 45.4546 5.73637C45.3877 5.80231 45.4546 5.80231 45.4546 5.73637ZM50.6016 3.56051C50.6016 3.89018 50.5348 4.21986 50.4679 4.41767C50.4011 4.68141 50.2674 4.81328 50.0669 4.94515C49.9332 5.07702 49.7326 5.20889 49.5321 5.20889C49.3316 5.27482 49.131 5.27483 48.8636 5.27483H48.3957C48.262 5.27483 48.1284 5.27483 47.9947 5.27483V0.791223C48.1284 0.725287 48.262 0.725289 48.3957 0.725289C48.5294 0.725289 48.6631 0.725289 48.8636 0.725289C49.131 0.725289 49.3316 0.791223 49.5321 0.791223C49.7326 0.857158 49.9332 0.923094 50.0669 1.05497C50.2005 1.18684 50.3342 1.38464 50.4679 1.58245C50.5348 1.78025 50.6016 2.10993 50.6016 2.43961V3.56051ZM51.2701 2.50554C51.2701 2.10993 51.2032 1.78025 51.0695 1.45058C50.9358 1.1209 50.8022 0.923094 50.6016 0.725289C50.4011 0.527483 50.1337 0.395613 49.8663 0.329678C49.5989 0.263742 49.2647 0.197806 48.9305 0.197806C48.7968 0.197806 48.6631 0.197806 48.4626 0.197806C48.3289 0.197806 48.1952 0.197806 48.0615 0.197806C47.9278 0.197806 47.7941 0.197806 47.7273 0.197806C47.6604 0.197806 47.5267 0.197806 47.5267 0.197806C47.3931 0.197806 47.3931 0.263741 47.3931 0.395612V5.67044C47.3931 5.80231 47.4599 5.86824 47.5267 5.86824C47.5936 5.86824 47.6604 5.93418 47.7273 5.93418C47.861 5.93418 47.9278 5.93418 48.0615 5.93418C48.1952 5.93418 48.3289 5.93418 48.4626 5.93418C48.5963 5.93418 48.73 5.93418 48.9305 5.93418C49.2647 5.93418 49.5989 5.86824 49.8663 5.80231C50.1337 5.73637 50.4011 5.53857 50.6016 5.40669C50.8022 5.20889 50.9358 4.94515 51.0695 4.68141C51.2032 4.35173 51.2701 4.02206 51.2701 3.62644V2.50554ZM58.9572 5.80231V5.40669C58.9572 5.34076 58.9572 5.27483 58.8904 5.27483H57.4198C57.2193 5.27483 57.0187 5.27482 56.9519 5.20889C56.8182 5.20889 56.7514 5.14295 56.6845 5.07702C56.6177 5.01108 56.5508 4.94515 56.5508 4.87921C56.5508 4.81328 56.484 4.68141 56.484 4.54954V3.3627H58.8904C58.9572 3.3627 58.9572 3.3627 58.9572 3.29677C59.0241 3.23083 59.0241 3.23083 59.0241 3.1649V2.83522C59.0241 2.76928 59.0241 2.76928 58.9572 2.70335C58.9572 2.63741 58.8904 2.63741 58.8904 2.63741H56.484V1.51651C56.484 1.38464 56.484 1.25277 56.5508 1.1209C56.5508 0.989029 56.6177 0.923095 56.6845 0.85716C56.7514 0.791224 56.8182 0.725289 56.9519 0.725289C57.0856 0.659353 57.2193 0.659354 57.4198 0.659354H58.8904C58.9572 0.659354 58.9572 0.593418 58.9572 0.527483V0.13187V0.0659353L58.8904 1.00609e-06H57.353C56.8182 1.00609e-06 56.4171 0.131872 56.1497 0.329678C55.8824 0.527484 55.7487 0.923094 55.7487 1.38464V4.2858C55.7487 4.81328 55.8824 5.14295 56.1497 5.40669C56.4171 5.6045 56.8182 5.73637 57.353 5.73637H58.8904C58.8904 5.73637 58.9572 5.73637 58.9572 5.67044C58.9572 5.86824 58.9572 5.86824 58.9572 5.80231ZM64.1711 3.56051C64.1711 3.89018 64.1043 4.21986 64.0375 4.41767C63.9706 4.68141 63.8369 4.81328 63.6364 4.94515C63.5027 5.07702 63.3022 5.20889 63.1016 5.20889C62.9011 5.27482 62.7006 5.27483 62.4332 5.27483H61.9653C61.8316 5.27483 61.6979 5.27483 61.5642 5.27483V0.791223C61.6979 0.725287 61.8316 0.725289 61.9653 0.725289C62.0989 0.725289 62.2326 0.725289 62.4332 0.725289C62.7006 0.725289 62.9011 0.791223 63.1016 0.791223C63.3022 0.857158 63.5027 0.923094 63.6364 1.05497C63.7701 1.18684 63.9038 1.38464 64.0375 1.58245C64.1043 1.78025 64.1711 2.10993 64.1711 2.43961V3.56051ZM64.7727 2.50554C64.7727 2.10993 64.7059 1.78025 64.5722 1.45058C64.4385 1.1209 64.3048 0.923094 64.1043 0.725289C63.9038 0.527483 63.6364 0.395613 63.369 0.329678C63.1016 0.263742 62.7674 0.197806 62.4332 0.197806C62.2995 0.197806 62.1658 0.197806 61.9653 0.197806C61.8316 0.197806 61.6979 0.197806 61.5642 0.197806C61.4305 0.197806 61.2968 0.197806 61.23 0.197806C61.1631 0.197806 61.0294 0.197806 61.0294 0.197806C60.8957 0.197806 60.8957 0.263741 60.8957 0.395612V5.67044C60.8957 5.80231 60.9626 5.86824 61.0294 5.86824C61.0963 5.86824 61.1631 5.93418 61.23 5.93418C61.3636 5.93418 61.4305 5.93418 61.5642 5.93418C61.6979 5.93418 61.8316 5.93418 61.9653 5.93418C62.0989 5.93418 62.2326 5.93418 62.4332 5.93418C62.7674 5.93418 63.1016 5.86824 63.369 5.80231C63.6364 5.73637 63.9038 5.53857 64.1043 5.40669C64.3048 5.20889 64.4385 4.94515 64.5722 4.68141C64.7059 4.35173 64.7727 4.02206 64.7727 3.62644V2.50554ZM70.5882 3.82425V0.329678C70.5882 0.263742 70.5883 0.263742 70.5214 0.197806C70.4546 0.197806 70.4546 0.13187 70.4546 0.13187H70.0535C69.9867 0.13187 69.9866 0.131871 69.9866 0.197806L69.9198 0.263741V3.75831C69.9198 4.02205 69.9198 4.21986 69.853 4.41767C69.7861 4.61547 69.7193 4.74734 69.6524 4.87921C69.5856 5.01108 69.385 5.07702 69.2514 5.14295C69.1177 5.20889 68.9171 5.20889 68.6497 5.20889C68.3824 5.20889 68.1818 5.20889 68.0481 5.14295C67.9145 5.07702 67.7139 5.01108 67.6471 4.87921C67.5802 4.74734 67.4465 4.61547 67.4465 4.41767C67.3797 4.21986 67.3797 4.02205 67.3797 3.75831V0.263741C67.3797 0.197805 67.3797 0.197806 67.3129 0.197806C67.3129 0.131871 67.246 0.13187 67.246 0.13187H66.8449C66.7781 0.13187 66.7781 0.131871 66.7781 0.197806C66.7781 0.263742 66.7113 0.263742 66.7113 0.329678V3.82425C66.7113 4.54954 66.8449 5.07702 67.246 5.47263C67.5802 5.80231 68.0481 6.00011 68.7166 6.00011C69.3182 6.00011 69.7861 5.80231 70.1203 5.47263C70.4546 5.07702 70.5882 4.54954 70.5882 3.82425ZM76.0027 5.67044V5.40669C76.0027 5.34076 75.9359 5.27483 75.869 5.27483H75.8022C75.7353 5.27483 75.6685 5.27483 75.5348 5.27483C75.4679 5.27483 75.3342 5.27483 75.2006 5.27483C75.0669 5.27483 75 5.27483 74.8663 5.27483H74.5321C74.3316 5.27483 74.131 5.27482 73.9973 5.20889C73.8637 5.14295 73.6631 5.07702 73.5963 4.94515C73.4626 4.81328 73.3957 4.61547 73.3289 4.41767C73.262 4.21986 73.1952 3.89018 73.1952 3.56051V2.50554C73.1952 2.17587 73.262 1.91213 73.3289 1.64838C73.3957 1.45058 73.5294 1.25277 73.5963 1.1209C73.73 0.989029 73.8637 0.85716 73.9973 0.85716C74.131 0.791224 74.3316 0.791223 74.5321 0.791223C74.6658 0.791223 74.7326 0.791223 74.8663 0.791223C75 0.791223 75.1337 0.791223 75.2006 0.791223C75.3342 0.791223 75.4679 0.791223 75.5348 0.791223C75.6685 0.791223 75.7353 0.791223 75.8022 0.791223C75.869 0.791223 75.869 0.791223 75.869 0.791223V0.725289V0.395612C75.869 0.329677 75.8022 0.329678 75.7353 0.329678C75.5348 0.329678 75.3342 0.263741 75.1337 0.263741C74.9332 0.263741 74.6658 0.197806 74.3984 0.197806C74.131 0.197806 73.9305 0.263742 73.6631 0.329678C73.3957 0.395613 73.1952 0.527483 72.9947 0.725289C72.7941 0.923094 72.6604 1.1209 72.5268 1.45058C72.3931 1.78025 72.3262 2.17586 72.3262 2.57148V3.62644C72.3262 4.08799 72.3931 4.4836 72.5268 4.74734C72.6604 5.07702 72.7941 5.27483 72.9947 5.47263C73.1952 5.67044 73.3957 5.80231 73.6631 5.86824C73.9305 5.93418 74.131 6.00011 74.3984 6.00011H74.7995C74.9332 6.00011 75 6.00011 75.1337 6.00011C75.2674 6.00011 75.3343 6.00011 75.4011 5.93418C75.4679 5.93418 75.6016 5.93418 75.6685 5.86824C75.7353 5.86824 75.7353 5.86824 75.8022 5.80231C75.9358 5.80231 76.0027 5.73637 76.0027 5.67044ZM80.3476 3.3627H78.6096L79.3449 0.85716C79.3449 0.791224 79.4118 0.725289 79.4786 0.725289C79.5455 0.725289 79.6123 0.791224 79.6123 0.85716L80.3476 3.3627ZM81.7514 5.73637L80.3476 0.725289C80.2808 0.593418 80.2808 0.527482 80.2139 0.461546C80.1471 0.395611 80.0802 0.329676 80.0134 0.263741C79.9465 0.197805 79.8797 0.197806 79.746 0.197806C79.6792 0.197806 79.6123 0.197806 79.5455 0.197806C79.4786 0.197806 79.4118 0.197806 79.3449 0.197806C79.2781 0.197806 79.2113 0.263741 79.0776 0.263741C79.0107 0.329676 78.9439 0.329676 78.877 0.461546C78.8102 0.527482 78.7433 0.659353 78.7433 0.725289L77.2727 5.73637V5.80231C77.2727 5.86824 77.3396 5.93418 77.4064 5.93418H77.8744H77.9412L78.008 5.86824L78.5428 4.08799H80.5481L81.0161 5.86824C81.0161 5.93418 81.0829 5.93418 81.0829 5.93418L81.1497 6.00011H81.6177C81.6845 5.93418 81.7514 5.86824 81.7514 5.73637C81.7514 5.80231 81.7514 5.80231 81.7514 5.73637ZM86.4973 0.659354V0.263741C86.4973 0.197805 86.4305 0.13187 86.3637 0.13187H82.6872C82.6203 0.13187 82.6203 0.131871 82.5535 0.197806C82.5535 0.197806 82.4866 0.263742 82.4866 0.329678V0.725289C82.4866 0.791224 82.4867 0.791223 82.5535 0.791223C82.6203 0.791223 82.6203 0.85716 82.6872 0.85716H84.2246V5.80231C84.2246 5.86824 84.2246 5.86824 84.2915 5.93418L84.3583 6.00011H84.7594C84.8262 6.00011 84.8262 6.00011 84.8262 5.93418C84.8262 5.86824 84.8931 5.86824 84.8931 5.80231V0.85716H86.4305C86.4305 0.791224 86.4973 0.791225 86.4973 0.659354ZM88.7032 5.80231V0.329678C88.7032 0.263742 88.7032 0.263741 88.6364 0.263741C88.6364 0.197805 88.5695 0.197806 88.5695 0.197806H88.1685C88.1016 0.197806 88.1016 0.197805 88.1016 0.263741L88.0348 0.329678V5.80231C88.0348 5.86824 88.0348 5.86824 88.1016 5.93418L88.1685 6.00011H88.5695C88.6364 6.00011 88.6364 6.00011 88.6364 5.93418C88.6364 5.86824 88.7032 5.80231 88.7032 5.80231ZM94.5187 3.56051C94.5187 3.89018 94.5187 4.15392 94.4519 4.41767C94.3851 4.68141 94.3182 4.81328 94.1845 4.94515C94.0508 5.07702 93.9171 5.20889 93.7834 5.27483C93.6498 5.34076 93.4492 5.34076 93.2487 5.34076C93.0482 5.34076 92.8476 5.34076 92.7139 5.27483C92.5802 5.20889 92.3797 5.07702 92.3129 4.94515C92.1792 4.81328 92.1123 4.61547 92.0455 4.41767C91.9786 4.15392 91.9786 3.89018 91.9786 3.56051V2.57148C91.9786 2.2418 92.0455 1.97806 92.0455 1.71432C92.1123 1.45058 92.1792 1.31871 92.3129 1.1209C92.4465 0.989029 92.5802 0.857158 92.7139 0.791223C92.8476 0.725287 93.0482 0.659354 93.2487 0.659354C93.4492 0.659354 93.6498 0.725287 93.7834 0.791223C93.9171 0.857158 94.0508 0.989029 94.1845 1.1209C94.3182 1.25277 94.3851 1.45058 94.4519 1.71432C94.5187 1.91212 94.5187 2.2418 94.5187 2.57148V3.56051ZM95.1203 2.57148C95.1203 2.17586 95.0535 1.78025 94.9866 1.51651C94.853 1.18684 94.7193 0.989029 94.5856 0.791223C94.3851 0.593417 94.1845 0.461547 93.984 0.395612C93.7166 0.329677 93.5161 0.263741 93.1818 0.263741C92.9145 0.263741 92.6471 0.329677 92.3797 0.395612C92.1123 0.461547 91.9118 0.659352 91.7781 0.791223C91.5776 0.989029 91.4439 1.25277 91.377 1.51651C91.2433 1.84619 91.2433 2.17586 91.2433 2.57148V3.56051C91.2433 3.95612 91.3102 4.35173 91.377 4.61547C91.4439 4.94515 91.5776 5.14295 91.7781 5.34076C91.9786 5.53857 92.1792 5.67044 92.3797 5.80231C92.5802 5.86824 92.8476 5.93418 93.1818 5.93418C93.4492 5.93418 93.7166 5.86824 93.984 5.80231C94.2514 5.73637 94.4519 5.53857 94.5856 5.34076C94.7861 5.14295 94.853 4.87921 94.9866 4.61547C95.0535 4.2858 95.1203 3.95612 95.1203 3.56051V2.57148ZM100.936 5.73637V0.329678C100.936 0.263742 100.936 0.263741 100.869 0.263741C100.869 0.197805 100.802 0.197806 100.802 0.197806H100.401C100.334 0.197806 100.334 0.197805 100.334 0.263741L100.267 0.329678V4.87921L97.9947 0.329678C97.9278 0.263742 97.9278 0.263742 97.861 0.197806C97.7941 0.197806 97.7941 0.13187 97.6604 0.13187H97.2594C97.1925 0.13187 97.1257 0.131871 97.1257 0.197806C97.0589 0.263742 97.0588 0.329678 97.0588 0.329678V5.80231C97.0588 5.86824 97.0589 5.86824 97.1257 5.86824H97.1925H97.5936C97.6605 5.86824 97.6604 5.86824 97.6604 5.80231C97.6604 5.80231 97.7273 5.73637 97.7273 5.67044V1.1209L100.067 5.67044C100.134 5.73637 100.201 5.80231 100.334 5.80231H100.802C100.869 5.80231 100.869 5.80231 100.936 5.73637C100.936 5.80231 100.936 5.80231 100.936 5.73637ZM108.89 5.67044V5.40669C108.89 5.34076 108.824 5.27483 108.757 5.27483C108.69 5.27483 108.623 5.27483 108.489 5.27483C108.422 5.27483 108.289 5.27483 108.155 5.27483C108.021 5.27483 107.888 5.27483 107.821 5.27483H107.487C107.286 5.27483 107.086 5.27482 106.952 5.20889C106.818 5.14295 106.618 5.07702 106.551 4.94515C106.417 4.81328 106.35 4.61547 106.283 4.41767C106.217 4.21986 106.15 3.89018 106.15 3.56051V2.50554C106.15 2.17587 106.217 1.91213 106.283 1.64838C106.35 1.45058 106.484 1.25277 106.551 1.1209C106.685 0.989029 106.818 0.85716 106.952 0.85716C107.086 0.791224 107.286 0.791223 107.487 0.791223C107.62 0.791223 107.687 0.791223 107.821 0.791223C107.955 0.791223 108.088 0.791223 108.155 0.791223C108.289 0.791223 108.422 0.791223 108.489 0.791223C108.623 0.791223 108.69 0.791223 108.757 0.791223C108.824 0.791223 108.824 0.791223 108.824 0.791223V0.725289V0.395612C108.824 0.329677 108.757 0.329678 108.69 0.329678C108.489 0.329678 108.289 0.263741 108.088 0.263741C107.888 0.263741 107.62 0.197806 107.353 0.197806C107.086 0.197806 106.885 0.263742 106.618 0.329678C106.35 0.395613 106.15 0.527483 105.949 0.725289C105.749 0.923094 105.615 1.1209 105.481 1.45058C105.348 1.78025 105.281 2.17586 105.281 2.57148V3.62644C105.281 4.08799 105.348 4.4836 105.481 4.74734C105.615 5.07702 105.749 5.27483 105.949 5.47263C106.15 5.67044 106.35 5.80231 106.618 5.86824C106.885 5.93418 107.086 6.00011 107.353 6.00011H107.754C107.888 6.00011 108.021 6.00011 108.088 6.00011C108.222 6.00011 108.289 6.00011 108.356 5.93418C108.422 5.93418 108.556 5.93418 108.623 5.86824C108.69 5.86824 108.69 5.86824 108.757 5.80231C108.89 5.80231 108.89 5.73637 108.89 5.67044ZM113.837 5.80231V5.40669C113.837 5.34076 113.837 5.27483 113.77 5.27483H112.299C112.099 5.27483 111.898 5.27482 111.832 5.20889C111.698 5.20889 111.631 5.14295 111.564 5.07702C111.497 5.01108 111.431 4.94515 111.431 4.87921C111.431 4.81328 111.431 4.68141 111.431 4.54954V3.3627H113.837C113.904 3.3627 113.904 3.3627 113.904 3.29677C113.904 3.23083 113.971 3.23083 113.971 3.1649V2.83522C113.971 2.76928 113.971 2.76928 113.904 2.70335C113.904 2.63741 113.837 2.63741 113.837 2.63741H111.431V1.51651C111.431 1.38464 111.431 1.25277 111.431 1.1209C111.431 0.989029 111.497 0.923095 111.564 0.85716C111.631 0.791224 111.698 0.725289 111.832 0.725289C111.965 0.659353 112.099 0.659354 112.299 0.659354H113.77C113.837 0.659354 113.837 0.593418 113.837 0.527483V0.13187V0.0659353L113.77 1.00609e-06H112.233C111.698 1.00609e-06 111.297 0.131872 111.029 0.329678C110.762 0.527484 110.628 0.923093 110.628 1.45058V4.35173C110.628 4.87921 110.762 5.20889 111.029 5.47263C111.297 5.67044 111.698 5.80231 112.233 5.80231H113.77C113.77 5.80231 113.837 5.80231 113.837 5.73637C113.77 5.86824 113.837 5.86824 113.837 5.80231ZM119.652 5.73637V0.329678C119.652 0.263742 119.652 0.263741 119.586 0.263741C119.586 0.197805 119.519 0.197806 119.519 0.197806H119.118C119.051 0.197806 119.051 0.197805 119.051 0.263741V0.329678V4.87921L116.778 0.329678C116.778 0.263742 116.711 0.263742 116.644 0.197806C116.578 0.197806 116.578 0.13187 116.444 0.13187H116.043C115.976 0.13187 115.909 0.131871 115.909 0.197806C115.842 0.263742 115.842 0.329678 115.842 0.329678V5.80231C115.842 5.86824 115.842 5.86824 115.842 5.86824H115.909H116.31C116.377 5.86824 116.377 5.86824 116.377 5.80231C116.377 5.80231 116.444 5.73637 116.444 5.67044V1.1209L118.783 5.67044C118.85 5.73637 118.917 5.80231 119.051 5.80231H119.519C119.586 5.80231 119.586 5.80231 119.652 5.73637C119.652 5.80231 119.652 5.80231 119.652 5.73637ZM125.201 0.659354V0.263741C125.201 0.197805 125.134 0.13187 125.067 0.13187H121.39C121.324 0.13187 121.324 0.131871 121.257 0.197806C121.257 0.197806 121.19 0.263742 121.19 0.329678V0.725289C121.19 0.791224 121.19 0.791223 121.257 0.791223C121.257 0.791223 121.324 0.85716 121.39 0.85716H122.928V5.80231C122.928 5.86824 122.928 5.86824 122.928 5.93418L122.995 6.00011H123.396C123.463 6.00011 123.463 6.00011 123.463 5.93418C123.463 5.86824 123.529 5.86824 123.529 5.80231V0.85716H125.067C125.134 0.791224 125.201 0.791225 125.201 0.659354ZM129.947 5.80231V5.40669C129.947 5.34076 129.947 5.27483 129.88 5.27483H128.409C128.209 5.27483 128.008 5.27482 127.941 5.20889C127.808 5.20889 127.741 5.14295 127.674 5.07702C127.607 5.01108 127.54 4.94515 127.54 4.87921C127.54 4.81328 127.54 4.68141 127.54 4.54954V3.3627H129.947C130.013 3.3627 130.013 3.3627 130.013 3.29677C130.013 3.23083 130.08 3.23083 130.08 3.1649V2.83522C130.08 2.76928 130.08 2.76928 130.013 2.70335C130.013 2.63741 129.947 2.63741 129.947 2.63741H127.54V1.51651C127.54 1.38464 127.54 1.25277 127.54 1.1209C127.54 0.989029 127.607 0.923095 127.674 0.85716C127.741 0.791224 127.808 0.725289 127.941 0.725289C128.075 0.659353 128.209 0.659354 128.409 0.659354H129.88C129.947 0.659354 129.947 0.593418 129.947 0.527483V0.13187V0.0659353L129.88 1.00609e-06H128.342C127.808 1.00609e-06 127.406 0.131872 127.139 0.329678C126.872 0.527484 126.738 0.923093 126.738 1.45058V4.35173C126.738 4.87921 126.872 5.20889 127.139 5.47263C127.406 5.67044 127.808 5.80231 128.342 5.80231H129.88C129.88 5.80231 129.947 5.80231 129.947 5.73637C129.947 5.86824 129.947 5.86824 129.947 5.80231ZM135.16 1.71432C135.16 1.91212 135.094 2.10993 135.027 2.17587C134.96 2.30774 134.826 2.43961 134.693 2.50554C134.559 2.57148 134.358 2.63741 134.158 2.63741C133.957 2.63741 133.69 2.70335 133.489 2.70335H132.554V0.791223C132.62 0.791223 132.687 0.791223 132.754 0.791223C132.821 0.791223 132.888 0.725289 133.021 0.725289C133.088 0.725289 133.222 0.725289 133.289 0.725289H133.556C134.091 0.725289 134.492 0.791223 134.759 0.923094C135.027 1.05496 135.16 1.31871 135.16 1.71432ZM135.963 5.73637L134.559 3.23083C134.759 3.16489 134.893 3.09896 135.094 3.03302C135.227 2.96709 135.361 2.83522 135.495 2.70335C135.628 2.57148 135.695 2.43961 135.762 2.2418C135.829 2.10993 135.829 1.91212 135.829 1.71432C135.829 1.45058 135.762 1.18684 135.628 0.989031C135.495 0.791225 135.361 0.659354 135.16 0.527483C134.96 0.395612 134.693 0.329676 134.425 0.263741C134.158 0.197805 133.824 0.197806 133.556 0.197806C133.423 0.197806 133.289 0.197806 133.155 0.197806C133.021 0.197806 132.888 0.197806 132.754 0.197806C132.62 0.197806 132.487 0.197806 132.42 0.197806C132.286 0.197806 132.219 0.197806 132.086 0.197806C132.019 0.197806 131.952 0.263741 131.952 0.263741C131.952 0.263741 131.885 0.329677 131.885 0.395612V5.80231C131.885 5.86824 131.885 5.86824 131.885 5.93418L131.952 6.00011H132.353C132.42 6.00011 132.42 6.00011 132.42 5.93418C132.42 5.86824 132.487 5.86824 132.487 5.80231V3.42864H133.623L135.094 5.86824C135.094 5.93418 135.16 5.93418 135.16 5.93418C135.16 5.93418 135.227 5.93418 135.294 5.93418H135.762C135.829 5.93418 135.896 5.93418 135.896 5.80231C135.963 5.80231 135.963 5.80231 135.963 5.73637Z" transform="translate(64.0371 29.2856)" fill="#004391"/>
</svg>
