<svg width="122" height="31" viewBox="0 0 122 31" fill="none" xmlns="http://www.w3.org/2000/svg">
<path d="M2.73195 3.67085C2.12032 3.29542 1.46791 2.91999 0.733957 2.54456C1.42714 3.00342 2.12032 3.5457 2.73195 4.08799C4.9746 6.1737 6.56484 8.8434 7.82887 11.8468L9.41911 11.5965C8.15508 8.71826 6.23863 5.92341 2.73195 3.67085ZM0 5.17256C1.01938 6.25713 1.91644 7.55027 2.69117 8.92683C3.09893 9.63597 3.46591 10.3451 3.79211 11.096L5.38235 11.4714C4.60762 9.92797 3.66978 8.63483 2.69117 7.50855C1.87567 6.63255 0.978609 5.83998 0 5.17256ZM2.73195 0.625712C2.07955 0.375427 1.42714 0.208571 0.733957 -3.18254e-07C1.42714 0.291999 2.07955 0.625713 2.73195 1.00114C6.23863 3.04514 9.05213 6.13198 10.887 10.7623L12.0287 9.67769C10.0307 5.21427 6.93182 2.16914 2.73195 0.625712Z" transform="translate(20.7949 12.8545)" fill="white"/>
<path d="M3.09893 0.375428C2.12032 0.166857 1.06016 0.0417139 -6.22183e-07 -3.18254e-07C1.06016 0.208571 2.12032 0.50057 3.09893 0.875997C7.625 2.50285 11.0909 5.63141 13.1297 10.8457L13.619 8.96855C11.2132 3.75428 7.50267 1.29314 3.09893 0.375428Z" transform="translate(20.4277 10.3516)" fill="white"/>
<path d="M16.4325 3.04513C15.617 2.41942 14.8015 1.79371 14.0675 1.12628C13.7413 0.834283 13.4559 0.542284 13.1705 0.250285L11.7025 1.98909e-08C12.4773 0.583998 13.252 1.12628 14.0675 1.66857C14.8422 2.16914 15.617 2.62799 16.4325 3.04513ZM15.9024 4.75542C15.2908 4.4217 14.6791 4.04627 14.0675 3.71256C12.1103 2.54456 10.2754 1.25143 9.01136 1.98909e-08L7.21724 0.250285C9.29679 1.83542 11.5802 3.08685 14.0675 4.08799C14.6791 4.29656 15.2908 4.54684 15.9024 4.75542ZM14.1083 8.63483C8.80748 7.42512 3.87366 5.50627 1.59024 2.91999L0 4.54684C3.58823 7.42512 8.35895 8.8434 14.1083 9.17712C15.0869 9.21883 16.0655 9.26054 17.0849 9.26054C16.0655 9.05197 15.0869 8.8434 14.1083 8.63483ZM16.2286 6.92455C15.5354 6.67427 14.8015 6.38227 14.0675 6.13198C10.6424 4.75541 7.17647 3.04513 5.05615 0.917712L3.34358 1.752C5.70855 3.8377 9.33756 5.33941 14.1083 6.4657C14.8015 6.63255 15.4946 6.75769 16.2286 6.92455Z" transform="translate(0 0.924072)" fill="white"/>
<path d="M5.74933 6.71598C6.85027 5.46456 7.7881 4.1297 8.60361 2.62799C8.97058 1.96057 9.29679 1.29314 9.62299 0.583999C9.29679 1.04285 8.97058 1.50171 8.60361 1.96057C7.74732 3.00342 6.80949 4.00456 5.74933 4.92227C4.07754 6.38227 2.1611 7.67541 1.55546e-07 8.8434L0.326203 11.0543C2.44652 9.88626 4.24064 8.42626 5.74933 6.71598ZM5.74933 1.20971C6.11631 0.834284 6.44251 0.417142 6.76871 3.18254e-07C6.44251 0.250285 6.11631 0.542284 5.74933 0.792569C4.28142 1.87714 2.6504 2.87828 0.897059 3.71256L0.244652 5.54799C2.36497 4.25485 4.28142 2.79485 5.74933 1.20971ZM8.60361 10.8874C10.7239 8.05083 12.0287 4.63027 12.4773 0.583999C11.6618 3.29542 10.3569 5.71484 8.60361 7.84226C7.74732 8.88512 6.80949 9.84454 5.74933 10.7623C4.44452 11.8885 2.9766 12.9314 1.30481 13.8491L2.73195 16.1434C3.83289 15.476 4.8115 14.7251 5.74933 13.9325C6.85027 13.0148 7.7881 12.0137 8.60361 10.8874ZM15.0869 0.0417139C15.0053 6.04855 12.8035 11.0543 8.60361 15.1005C7.74732 15.9348 6.76871 16.7274 5.74933 17.4782C5.42313 17.7285 5.09692 17.9371 4.72995 18.1874L5.74933 18.8965L7.42112 20.0645C7.82887 19.7308 8.23663 19.4388 8.60361 19.1051C14.2714 14.0994 16.9218 7.38341 15.0869 0.0417139Z" transform="translate(3.91406 10.9355)" fill="white"/>
<path d="M4.28093 0.965783C4.64791 0.882354 5.09644 0.84064 5.50419 0.882354L4.28093 0.214927L3.95473 0.00635664C-0.163586 -0.202214 -0.734442 4.76177 0.733472 9.01662C0.570371 4.51149 1.91596 1.54978 4.28093 0.965783ZM7.90994 3.09321C8.03227 3.09321 8.11382 3.09321 8.23614 3.09321L7.90994 2.80121L7.13521 2.05035C6.52358 2.00864 5.9935 2.13378 5.50419 2.34235C5.01489 2.55092 4.60713 2.88463 4.28093 3.34349C3.42465 4.46977 3.01689 6.34691 3.05767 8.80805C3.38387 7.47319 3.79163 6.38862 4.28093 5.51263C4.64791 4.88691 5.05566 4.38634 5.50419 4.01092C6.19737 3.42692 7.01288 3.13492 7.90994 3.09321ZM10.1118 5.55434L9.4594 4.51149C8.88855 4.51149 8.35847 4.63663 7.95072 4.88691C6.76823 5.55434 6.03427 6.97262 5.54497 8.89147V8.93319C6.23815 7.76519 7.05366 6.84748 7.95072 6.26348C8.60312 5.80463 9.29631 5.55434 10.1118 5.55434ZM10.7642 7.26462C9.62251 7.59834 8.68467 8.3909 7.90994 9.51719C7.78762 9.68404 7.70606 9.8509 7.58374 10.0178C7.70606 9.89262 7.78762 9.80919 7.90994 9.72576C8.76622 8.93319 9.70406 8.34919 10.805 8.22405L10.7642 7.26462Z" transform="translate(17.9414)" fill="white"/>
<path d="M18.5528 3.04513C18.512 3.21199 18.512 3.37885 18.4712 3.5457C18.4305 4.00456 18.3897 4.46342 18.4305 5.0057C18.4305 5.46456 18.4305 5.83998 18.4712 6.21541C18.512 6.42398 18.512 6.59084 18.5528 6.7577V3.04513ZM18.5528 0.125142L15.2092 4.79713L18.5528 9.4274V9.59426H15.1277L13.4559 6.92455L11.7841 9.59426H8.52205L11.7433 4.75542L8.44051 0.0834284H11.9064L13.4559 2.62799L15.0053 0.0834284L18.5528 0.125142ZM8.15508 9.63597V7.34169H3.66978C3.58823 7.34169 3.46591 7.34169 3.38436 7.34169C3.26203 7.34169 3.18048 7.29998 3.09893 7.21655C3.05816 7.17484 3.01738 7.13312 3.01738 7.09141C2.9766 7.0497 2.9766 6.96627 2.9766 6.88284V5.83998H7.99198V3.79599H2.9766V3.08685C2.9766 3.04513 2.9766 3.00342 2.9766 2.91999C2.9766 2.87828 2.9766 2.79485 3.01738 2.75314C3.05815 2.71142 3.05816 2.62799 3.09893 2.58628C3.13971 2.54456 3.22126 2.50285 3.30281 2.50285C3.38436 2.46114 3.46591 2.46114 3.54746 2.46114H8.1143V0.166857H1.50869C1.38636 0.166857 1.26404 0.166857 1.14171 0.208571C1.01938 0.208571 0.897058 0.250285 0.774732 0.333713C0.652406 0.375427 0.530079 0.458856 0.407753 0.583998C0.285426 0.709141 0.203876 0.792569 0.163101 0.917712C0.122326 1.04285 0.081552 1.168 0.0407766 1.29314C1.24254e-06 1.41828 -1.24437e-06 1.54342 -1.24437e-06 1.66857V8.09255C-1.24437e-06 8.25941 -1.24437e-06 8.38455 -1.24437e-06 8.50969C-1.24437e-06 8.63483 0.0407754 8.75998 0.122326 8.88512C0.163102 9.01026 0.285426 9.1354 0.407753 9.26055C0.530079 9.34397 0.652406 9.4274 0.774732 9.46912C0.897058 9.51083 1.01938 9.55255 1.14171 9.55255C1.26404 9.55255 1.38636 9.55255 1.50869 9.55255L8.15508 9.63597ZM83.1002 9.63597V7.34169H78.6149C78.5334 7.34169 78.4111 7.34169 78.3295 7.34169C78.2072 7.34169 78.1256 7.29998 78.0441 7.21655C78.0033 7.17484 77.9625 7.13312 77.9625 7.09141C77.9218 7.0497 77.9218 6.96627 77.9218 6.88284V5.83998H82.9371V3.79599H77.9218V3.08685C77.9218 3.04513 77.9218 3.00342 77.9218 2.91999C77.9218 2.87828 77.9218 2.79485 77.9625 2.75314C77.9625 2.71142 78.0033 2.62799 78.0441 2.58628C78.0849 2.54456 78.1664 2.50285 78.248 2.50285C78.3295 2.46114 78.4111 2.46114 78.4926 2.46114H83.0595V0.166857H76.4538C76.3315 0.166857 76.2092 0.166857 76.0869 0.208571C75.9645 0.208571 75.8422 0.250285 75.6791 0.333713C75.5568 0.375427 75.4345 0.458856 75.3121 0.583998C75.1898 0.709141 75.1083 0.792569 75.0675 0.917712C75.0267 1.04285 74.9859 1.168 74.9452 1.29314C74.9452 1.41828 74.9044 1.54342 74.9044 1.66857V8.09255C74.9044 8.25941 74.9044 8.38455 74.9044 8.50969C74.9044 8.63483 74.9452 8.75998 75.0267 8.92683C75.0675 9.05198 75.1898 9.17712 75.3121 9.30226C75.4345 9.38569 75.5568 9.46912 75.6791 9.51083C75.8014 9.55255 75.9238 9.59426 76.0461 9.59426C76.1684 9.59426 76.2907 9.59426 76.4131 9.59426L83.1002 9.63597ZM71.1123 9.63597V2.50285H74.4151V0.125142H64.8736V2.50285H68.1764V9.63597H71.1123ZM64.3436 0.125142H62.0601V5.79827C62.0601 5.83998 62.0601 5.83998 62.0601 5.8817C62.0601 5.92341 62.0601 5.96513 62.0194 5.96513C61.9786 6.00684 61.9786 6.00684 61.897 6.00684C61.8563 6.00684 61.8155 5.96513 61.7339 5.92341C61.6932 5.8817 61.6524 5.83998 61.6116 5.75656L58.268 0.875998C58.1457 0.667427 57.9826 0.50057 57.7787 0.375428C57.6156 0.250285 57.4525 0.166857 57.2486 0.125142C57.0855 0.0834282 56.8817 0.0417143 56.7186 1.59127e-07C56.5555 1.59127e-07 56.3924 1.59127e-07 56.27 1.59127e-07C55.9846 1.59127e-07 55.74 0.0417143 55.4953 0.0834284C55.2506 0.125143 55.0468 0.250285 54.8429 0.375428C54.639 0.50057 54.4759 0.667427 54.3944 0.917712C54.272 1.12628 54.2313 1.37657 54.2313 1.71028V9.63597H56.5147V4.00456C56.5147 3.92113 56.5147 3.8377 56.5555 3.79599C56.5962 3.75428 56.5962 3.75428 56.637 3.71256C56.6778 3.71256 56.6778 3.71256 56.7186 3.71256C56.7593 3.71256 56.8001 3.75428 56.8409 3.79599C56.8817 3.8377 56.9224 3.87942 56.9632 3.96285L60.3068 8.80169C60.4291 9.01026 60.5922 9.17712 60.7553 9.30226C60.9184 9.4274 61.0815 9.51083 61.2446 9.59426C61.4077 9.67769 61.5708 9.7194 61.7747 9.7194C61.9378 9.76112 62.1417 9.76112 62.3048 9.76112C62.6718 9.76112 62.998 9.7194 63.2426 9.59426C63.4873 9.51083 63.6912 9.38569 63.8135 9.26055C63.9766 9.09369 64.0581 8.96855 64.1397 8.80169C64.2212 8.63483 64.262 8.50969 64.262 8.34283C64.262 8.17598 64.3028 8.09255 64.3028 8.05083L64.3436 0.125142ZM53.375 9.63597V7.34169H48.8897C48.8081 7.34169 48.6858 7.34169 48.6043 7.34169C48.4819 7.34169 48.4004 7.29998 48.3596 7.21655C48.3188 7.17484 48.2781 7.13312 48.2781 7.09141C48.2781 7.0497 48.2373 6.96627 48.2373 6.88284V5.83998H53.2527V3.79599H48.2373V3.08685C48.2373 3.04513 48.2373 3.00342 48.2373 2.91999C48.2373 2.87828 48.2373 2.79485 48.2781 2.75314C48.3188 2.71142 48.3188 2.62799 48.3596 2.58628C48.4004 2.54456 48.4819 2.50285 48.5635 2.50285C48.645 2.46114 48.7266 2.46114 48.8081 2.46114H53.3342V0.166857H46.7286C46.6063 0.166857 46.4839 0.166857 46.3616 0.208571C46.2393 0.208571 46.117 0.250285 45.9946 0.333713C45.8723 0.375427 45.75 0.458856 45.6277 0.583998C45.5053 0.709141 45.4238 0.792569 45.383 0.917712C45.3422 1.04285 45.3015 1.168 45.2607 1.29314C45.2199 1.41828 45.2199 1.54342 45.2199 1.66857V8.09255C45.2199 8.25941 45.2199 8.38455 45.2199 8.50969C45.2199 8.63483 45.2607 8.75998 45.3422 8.92683C45.383 9.05198 45.5053 9.17712 45.6277 9.30226C45.75 9.38569 45.8723 9.46912 45.9946 9.51083C46.117 9.55255 46.2393 9.59426 46.3616 9.59426C46.4839 9.59426 46.6063 9.59426 46.7286 9.59426L53.375 9.63597ZM44.8122 9.63597V7.25827H40.0414C39.9599 7.25827 39.8783 7.25827 39.7968 7.25827C39.7152 7.25827 39.6337 7.21655 39.5929 7.17484C39.5521 7.13312 39.5114 7.09141 39.5114 7.00798C39.5114 6.96627 39.4706 6.88284 39.4706 6.84112C39.4706 6.79941 39.4706 6.7577 39.4706 6.71598V0.125142H36.494V8.42626C36.494 8.5514 36.5347 8.67655 36.5347 8.80169C36.5755 8.92683 36.6163 9.01026 36.6978 9.1354C36.7386 9.21883 36.8202 9.30226 36.9017 9.38569C36.9833 9.46912 37.0648 9.51083 37.1871 9.55255C37.3095 9.59426 37.4318 9.63597 37.5134 9.63597C37.6357 9.67769 37.758 9.67769 37.8803 9.67769L44.8122 9.63597ZM35.3523 9.63597V7.34169H30.867C30.7854 7.34169 30.6631 7.34169 30.5815 7.34169C30.4592 7.34169 30.3777 7.29998 30.3369 7.21655C30.2961 7.17484 30.2553 7.13312 30.2553 7.09141C30.2146 7.0497 30.2146 6.96627 30.2146 6.88284V5.83998H35.2299V3.79599H30.2146V3.08685C30.2146 3.04513 30.2146 3.00342 30.2146 2.91999C30.2146 2.87828 30.2146 2.79485 30.2553 2.75314C30.2961 2.71142 30.2961 2.62799 30.3777 2.58628C30.4184 2.54456 30.5 2.50285 30.5815 2.50285C30.6631 2.46114 30.7446 2.46114 30.8262 2.46114H35.393V0.166857H28.7874C28.6651 0.166857 28.5428 0.166857 28.4204 0.208571C28.2981 0.250285 28.1758 0.250285 28.0127 0.333713C27.8904 0.375427 27.768 0.458856 27.6457 0.583998C27.5234 0.709141 27.4418 0.792569 27.4011 0.917712C27.3603 1.04285 27.3195 1.168 27.2787 1.29314C27.238 1.41828 27.238 1.54342 27.238 1.66857V8.09255C27.238 8.25941 27.238 8.38455 27.238 8.50969C27.238 8.63483 27.2787 8.75998 27.3603 8.92683C27.4011 9.05198 27.5234 9.17712 27.6457 9.30226C27.768 9.38569 27.8904 9.46912 28.0127 9.51083C28.135 9.55255 28.2573 9.59426 28.3797 9.59426C28.502 9.59426 28.6243 9.59426 28.7466 9.59426L35.3523 9.63597ZM18.5528 6.7577C18.5936 6.88284 18.5936 7.00798 18.6343 7.13312C18.7159 7.38341 18.7975 7.63369 18.879 7.84226C19.0013 8.05083 19.1237 8.25941 19.246 8.42626C19.4906 8.75998 19.7761 8.96855 20.0615 9.1354C20.3469 9.30226 20.7139 9.4274 21.0809 9.46912C21.4478 9.55254 21.8964 9.55255 22.3449 9.55255H26.4225V7.25827H23.8536C23.6089 7.25827 23.3643 7.25827 23.1604 7.25827C22.9158 7.25827 22.7119 7.21655 22.5488 7.17484C22.3857 7.13312 22.1818 7.04969 22.0187 6.96627C21.8556 6.88284 21.7333 6.71598 21.6517 6.54912C21.611 6.50741 21.611 6.42398 21.5702 6.29884C21.5294 6.1737 21.4886 6.00684 21.4886 5.79827C21.4478 5.5897 21.4479 5.2977 21.4479 4.96399C21.4479 4.83884 21.4479 4.7137 21.4479 4.58856C21.4479 4.4217 21.4886 4.29656 21.4886 4.1297C21.5294 3.96285 21.5294 3.8377 21.5702 3.67085C21.611 3.50399 21.6517 3.37885 21.7333 3.25371C21.8556 3.08685 21.9372 2.91999 22.1003 2.83656C22.2226 2.71142 22.3857 2.66971 22.5896 2.62799C22.7527 2.58628 22.9565 2.54456 23.1604 2.54456C23.3643 2.54456 23.6089 2.54456 23.8536 2.54456H26.3001V0.166857H22.4265C22.1818 0.166857 21.8964 0.166857 21.611 0.208571C21.3255 0.250285 21.0401 0.291999 20.7547 0.375428C20.4692 0.458856 20.1838 0.583998 19.9392 0.750855C19.6945 0.917712 19.4499 1.12628 19.246 1.41828C19.0421 1.71028 18.879 2.04399 18.7567 2.37771C18.6751 2.58628 18.6344 2.83656 18.5936 3.08685L18.5528 6.7577ZM18.5528 9.63597V9.46912L18.6751 9.63597H18.5528Z" transform="translate(38.8184 4.84521)" fill="white"/>
<path d="M2.24265 3.58742V3.42056C2.24265 3.37885 2.20187 3.33713 2.16109 3.33713H2.12032C2.07954 3.33713 2.03877 3.33713 1.95722 3.33713C1.91644 3.33713 1.83489 3.33713 1.75334 3.33713C1.67179 3.33713 1.63101 3.33713 1.54946 3.33713H1.34559C1.22326 3.33713 1.10094 3.33713 1.01939 3.29542C0.937835 3.2537 0.815506 3.21199 0.774731 3.12856C0.69318 3.04514 0.652407 2.91999 0.611632 2.79485C0.570857 2.66971 0.530079 2.46114 0.530079 2.25256V1.58514C0.530079 1.37657 0.530081 1.20971 0.611632 1.04285C0.652407 0.917712 0.733956 0.792569 0.774731 0.70914C0.856282 0.625712 0.937835 0.542285 1.01939 0.542285C1.10094 0.50057 1.22326 0.500569 1.34559 0.500569C1.42714 0.500569 1.46791 0.500569 1.54946 0.500569C1.63101 0.500569 1.71257 0.500569 1.75334 0.500569C1.83489 0.500569 1.87567 0.500569 1.95722 0.500569C2.03877 0.500569 2.07954 0.500569 2.12032 0.500569C2.1611 0.500569 2.16109 0.500569 2.16109 0.500569V0.458856V0.250285C2.16109 0.208571 2.12032 0.208571 2.07955 0.208571C1.95722 0.208571 1.83489 0.166856 1.71257 0.166856C1.59024 0.166856 1.42714 0.125143 1.26404 0.125143C1.10094 0.125143 0.97861 0.166857 0.815509 0.208571C0.652407 0.250286 0.530081 0.333713 0.407755 0.458856C0.285429 0.583998 0.203876 0.70914 0.122326 0.917711C0.0407748 1.12628 1.24437e-06 1.37657 1.24437e-06 1.62685V2.29428C1.24437e-06 2.58628 0.0407748 2.83656 0.122326 3.00342C0.203876 3.21199 0.285429 3.33713 0.407755 3.46228C0.530081 3.58742 0.652407 3.67085 0.815509 3.71256C0.97861 3.75428 1.10094 3.79599 1.26404 3.79599H1.50869C1.59024 3.79599 1.63102 3.79599 1.71257 3.79599C1.79412 3.79599 1.83489 3.79599 1.87567 3.75428C1.91644 3.75428 1.99799 3.75428 2.03877 3.71256C2.07955 3.71256 2.07954 3.71256 2.12032 3.67085C2.20187 3.67085 2.24265 3.62913 2.24265 3.58742ZM4.93382 2.12742H3.87366L4.32219 0.542285C4.32219 0.50057 4.36297 0.458856 4.40374 0.458856C4.44452 0.458856 4.48529 0.50057 4.48529 0.542285L4.93382 2.12742ZM5.74933 3.62913L4.89305 0.458856C4.85227 0.375428 4.85227 0.333713 4.81149 0.291999C4.77072 0.250284 4.72995 0.208571 4.68917 0.166856C4.64839 0.125142 4.60762 0.125143 4.56684 0.125143C4.52607 0.125143 4.48529 0.125143 4.44452 0.125143C4.40374 0.125143 4.36297 0.125143 4.32219 0.125143C4.28142 0.125143 4.24064 0.166856 4.19986 0.166856C4.15909 0.208571 4.11831 0.20857 4.07754 0.291999C4.03676 0.333713 4.03676 0.417142 3.99599 0.458856L3.09893 3.62913V3.67085C3.09893 3.71256 3.1397 3.75428 3.18048 3.75428H3.46591H3.50668L3.54746 3.71256L3.87366 2.58628H5.09692L5.38235 3.71256C5.38235 3.75428 5.38235 3.75428 5.42313 3.75428L5.4639 3.79599H5.74933C5.70855 3.75428 5.74933 3.71256 5.74933 3.62913C5.74933 3.67085 5.74933 3.67085 5.74933 3.62913ZM8.80748 1.08457C8.80748 1.20971 8.76671 1.33485 8.72593 1.37657C8.68516 1.46 8.60361 1.54342 8.52205 1.58514C8.4405 1.62685 8.31818 1.66857 8.19585 1.66857C8.07353 1.66857 7.91043 1.71028 7.74732 1.71028H7.17647V0.500569C7.21724 0.500569 7.25802 0.500569 7.29879 0.500569C7.33957 0.500569 7.38034 0.458856 7.46189 0.458856C7.50267 0.458856 7.58422 0.458856 7.625 0.458856H7.74732C8.07353 0.458856 8.31818 0.50057 8.48128 0.583998C8.72593 0.667426 8.80748 0.834283 8.80748 1.08457ZM9.29679 3.62913L8.44051 2.04399C8.56283 2.00228 8.64438 1.96057 8.76671 1.91885C8.84826 1.87714 8.92981 1.79371 9.01136 1.71028C9.09291 1.62685 9.13369 1.54342 9.17446 1.41828C9.21524 1.33485 9.21524 1.20971 9.21524 1.08457C9.21524 0.917712 9.17446 0.750856 9.09291 0.625713C9.01136 0.500571 8.92981 0.417142 8.80748 0.333714C8.68516 0.250285 8.52206 0.208571 8.35896 0.166856C8.19585 0.125142 7.99198 0.125143 7.82887 0.125143C7.74732 0.125143 7.66577 0.125143 7.58422 0.125143C7.50267 0.125143 7.42112 0.125143 7.33957 0.125143C7.25802 0.125143 7.17647 0.125143 7.13569 0.125143C7.05414 0.125143 7.01337 0.125143 6.93182 0.125143C6.89104 0.125143 6.85026 0.166856 6.85026 0.166856C6.85026 0.166856 6.80949 0.208571 6.80949 0.250285V3.67085C6.80949 3.71256 6.80949 3.71256 6.85026 3.75428L6.89104 3.79599H7.13569C7.17647 3.79599 7.17647 3.79599 7.17647 3.75428C7.17647 3.71256 7.21724 3.71256 7.21724 3.67085V2.16914H7.91042L8.80748 3.71256C8.80748 3.75428 8.84826 3.75428 8.84826 3.75428C8.84826 3.75428 8.88903 3.75428 8.92981 3.75428H9.21524C9.25601 3.75428 9.29679 3.75428 9.29679 3.67085C9.29679 3.67085 9.29679 3.67085 9.29679 3.62913ZM12.3142 3.67085V3.42056C12.3142 3.37885 12.3142 3.33713 12.2734 3.33713H11.3763C11.254 3.33713 11.1317 3.33713 11.0909 3.29542C11.0094 3.29542 10.9686 3.2537 10.9278 3.21199C10.887 3.17028 10.8463 3.12856 10.8463 3.08685C10.8463 3.04513 10.8055 2.96171 10.8055 2.87828V2.12742H12.2734C12.3142 2.12742 12.3142 2.12742 12.3142 2.08571C12.3142 2.04399 12.3549 2.04399 12.3549 2.00228V1.79371C12.3549 1.752 12.3549 1.752 12.3142 1.71028C12.3142 1.66857 12.2734 1.66857 12.2734 1.66857H10.8055V0.959426C10.8055 0.875998 10.8055 0.792569 10.8055 0.70914C10.8055 0.625712 10.8463 0.583999 10.887 0.542285C10.9278 0.50057 10.9686 0.458856 11.0501 0.458856C11.1317 0.417142 11.2132 0.417142 11.3356 0.417142H12.2326C12.2734 0.417142 12.2734 0.375428 12.2734 0.333714V0.0834277V0.0417142L12.2326 6.36508e-07H11.2948C10.9686 6.36508e-07 10.7239 0.083429 10.5608 0.208571C10.3977 0.333714 10.3162 0.583998 10.3162 0.875997V2.71142C10.3162 3.04514 10.3977 3.2537 10.5608 3.42056C10.7239 3.5457 10.9686 3.62913 11.2948 3.62913H12.2326C12.2326 3.62913 12.2734 3.62913 12.2734 3.58742C12.3142 3.71256 12.3142 3.71256 12.3142 3.67085ZM15.4539 3.67085V3.42056C15.4539 3.37885 15.4131 3.33713 15.4131 3.33713H14.516C14.3937 3.33713 14.2714 3.33713 14.2306 3.29542C14.1491 3.29542 14.1083 3.2537 14.0675 3.21199C14.0267 3.17028 13.986 3.12856 13.986 3.08685C13.986 3.04513 13.986 2.96171 13.986 2.87828V2.12742H15.4539C15.4946 2.12742 15.4946 2.12742 15.4946 2.08571C15.5354 2.04399 15.5354 2.04399 15.5354 2.00228V1.79371C15.5354 1.752 15.5354 1.752 15.4946 1.71028C15.4946 1.66857 15.4539 1.66857 15.4539 1.66857H13.986V0.959426C13.986 0.875998 13.986 0.792569 13.986 0.70914C13.986 0.625712 14.0267 0.583999 14.0675 0.542285C14.1083 0.50057 14.1491 0.458856 14.2306 0.458856C14.3122 0.417142 14.3937 0.417142 14.516 0.417142H15.4131C15.4539 0.417142 15.4539 0.375428 15.4539 0.333714V0.0834277V0.0417142L15.4131 6.36508e-07H14.4753C14.1491 6.36508e-07 13.9044 0.083429 13.7413 0.208571C13.5782 0.333714 13.4966 0.583998 13.4966 0.917711V2.75314C13.4966 3.08685 13.5782 3.29542 13.7413 3.46228C13.9044 3.58742 14.1491 3.67085 14.4753 3.67085H15.4131C15.4131 3.67085 15.4539 3.67085 15.4539 3.62913C15.4539 3.71256 15.4946 3.71256 15.4539 3.67085ZM18.6751 1.08457C18.6751 1.20971 18.6343 1.33485 18.5936 1.37657C18.5528 1.46 18.4712 1.54342 18.3897 1.58514C18.3081 1.62685 18.1858 1.66857 18.0635 1.66857C17.9412 1.66857 17.8188 1.71028 17.6557 1.71028H17.0849V0.500569C17.1257 0.500569 17.1664 0.500569 17.2072 0.500569C17.248 0.500569 17.2888 0.458856 17.3703 0.458856C17.4111 0.458856 17.4926 0.458856 17.5334 0.458856H17.6557C17.9819 0.458856 18.2266 0.50057 18.3897 0.583998C18.5528 0.667426 18.6751 0.834283 18.6751 1.08457ZM19.1237 3.62913L18.2674 2.04399C18.3897 2.00228 18.4712 1.96057 18.5936 1.91885C18.6751 1.87714 18.7567 1.79371 18.8382 1.71028C18.9198 1.62685 18.9606 1.54342 19.0013 1.41828C19.0421 1.33485 19.0421 1.20971 19.0421 1.08457C19.0421 0.917712 19.0013 0.750856 18.9198 0.625713C18.8382 0.500571 18.7567 0.417142 18.6343 0.333714C18.512 0.250285 18.3489 0.208571 18.1858 0.166856C18.0227 0.125142 17.8188 0.125143 17.6557 0.125143C17.5742 0.125143 17.4926 0.125143 17.4111 0.125143C17.3295 0.125143 17.248 0.125143 17.1664 0.125143C17.0849 0.125143 17.0033 0.125143 16.9626 0.125143C16.881 0.125143 16.8402 0.125143 16.7587 0.125143C16.7179 0.125143 16.6771 0.166856 16.6771 0.166856C16.6771 0.166856 16.6364 0.208571 16.6364 0.250285V3.67085C16.6364 3.71256 16.6364 3.71256 16.6771 3.75428L16.7179 3.79599H16.9626C17.0033 3.79599 17.0033 3.79599 17.0033 3.75428C17.0033 3.71256 17.0441 3.71256 17.0441 3.67085V2.16914H17.7373L18.6343 3.71256C18.6343 3.75428 18.6751 3.75428 18.6751 3.75428C18.6751 3.75428 18.7159 3.75428 18.7567 3.75428H19.0421C19.0829 3.75428 19.1237 3.75428 19.1237 3.67085C19.1644 3.67085 19.1237 3.67085 19.1237 3.62913ZM23.4458 2.12742H22.3857L22.8342 0.542285C22.8342 0.50057 22.875 0.458856 22.9158 0.458856C22.9565 0.458856 22.9973 0.50057 22.9973 0.542285L23.4458 2.12742ZM24.2614 3.62913L23.4051 0.458856C23.3643 0.375428 23.3643 0.333713 23.3235 0.291999C23.2827 0.250284 23.242 0.208571 23.2012 0.166856C23.1604 0.125142 23.1196 0.125143 23.0381 0.125143C22.9973 0.125143 22.9565 0.125143 22.9158 0.125143C22.875 0.125143 22.8342 0.125143 22.7934 0.125143C22.7527 0.125143 22.7119 0.166856 22.6303 0.166856C22.5896 0.208571 22.5488 0.20857 22.508 0.291999C22.4672 0.333713 22.4672 0.417142 22.4265 0.458856L21.5294 3.62913V3.67085C21.5294 3.71256 21.5702 3.75428 21.611 3.75428H21.8964H21.9372L21.9779 3.71256L22.3041 2.58628H23.5274L23.8128 3.71256C23.8128 3.75428 23.8128 3.75428 23.8536 3.75428L23.8944 3.79599H24.1798C24.2206 3.75428 24.2614 3.71256 24.2614 3.62913C24.2614 3.67085 24.2614 3.67085 24.2614 3.62913ZM27.7273 3.62913V0.208571C27.7273 0.166857 27.7273 0.166856 27.6865 0.166856C27.6865 0.125142 27.6457 0.125143 27.6457 0.125143H27.4011C27.3603 0.125143 27.3603 0.125142 27.3603 0.166856L27.3195 0.208571V3.08685L25.9331 0.208571C25.8924 0.166857 25.8924 0.166857 25.8516 0.125143C25.8108 0.125143 25.8108 0.0834277 25.7293 0.0834277H25.4846C25.4438 0.0834277 25.4031 0.0834287 25.4031 0.125143C25.3623 0.166857 25.3623 0.208571 25.3623 0.208571V3.67085C25.3623 3.71256 25.3623 3.71256 25.4031 3.71256H25.4438H25.6885C25.7293 3.71256 25.7293 3.71256 25.7293 3.67085C25.7293 3.67085 25.77 3.62913 25.77 3.58742V0.70914L27.1972 3.58742C27.238 3.62913 27.2787 3.67085 27.3603 3.67085H27.6457C27.6865 3.67085 27.6865 3.67085 27.7273 3.62913C27.7273 3.67085 27.6865 3.67085 27.7273 3.62913ZM30.867 2.25256C30.867 2.46114 30.8262 2.66971 30.7854 2.79485C30.7446 2.96171 30.6631 3.04514 30.5408 3.12856C30.4592 3.21199 30.3369 3.29542 30.2146 3.29542C30.0922 3.33713 29.9699 3.33713 29.8068 3.33713H29.5214C29.4398 3.33713 29.3583 3.33713 29.2767 3.33713V0.500569C29.3583 0.458855 29.4398 0.458856 29.5214 0.458856C29.6029 0.458856 29.6845 0.458856 29.8068 0.458856C29.9699 0.458856 30.0922 0.500569 30.2146 0.500569C30.3369 0.542284 30.4592 0.583998 30.5408 0.667427C30.6223 0.750855 30.7039 0.875997 30.7854 1.00114C30.8262 1.12628 30.867 1.33485 30.867 1.54342V2.25256ZM31.2747 1.58514C31.2747 1.33485 31.2339 1.12628 31.1524 0.917711C31.0708 0.70914 30.9893 0.583998 30.867 0.458856C30.7446 0.333713 30.5815 0.250286 30.4184 0.208571C30.2553 0.166857 30.0515 0.125143 29.8476 0.125143C29.766 0.125143 29.6845 0.125143 29.5622 0.125143C29.4806 0.125143 29.399 0.125143 29.3175 0.125143C29.2359 0.125143 29.1544 0.125143 29.1136 0.125143C29.0728 0.125143 28.9913 0.125143 28.9913 0.125143C28.9097 0.125143 28.9097 0.166857 28.9097 0.250285V3.58742C28.9097 3.67085 28.9505 3.71256 28.9913 3.71256C29.0321 3.71256 29.0728 3.75428 29.1136 3.75428C29.1952 3.75428 29.2359 3.75428 29.3175 3.75428C29.399 3.75428 29.4806 3.75428 29.5622 3.75428C29.6437 3.75428 29.7253 3.75428 29.8476 3.75428C30.0515 3.75428 30.2553 3.71256 30.4184 3.67085C30.5815 3.62913 30.7446 3.50399 30.867 3.42056C30.9893 3.29542 31.0708 3.12856 31.1524 2.96171C31.2339 2.75314 31.2747 2.54456 31.2747 2.29428V1.58514ZM35.9639 3.67085V3.42056C35.9639 3.37885 35.9639 3.33713 35.9231 3.33713H35.0261C34.9037 3.33713 34.7814 3.33713 34.7406 3.29542C34.6591 3.29542 34.6183 3.2537 34.5775 3.21199C34.5368 3.17028 34.496 3.12856 34.496 3.08685C34.496 3.04513 34.4552 2.96171 34.4552 2.87828V2.12742H35.9231C35.9639 2.12742 35.9639 2.12742 35.9639 2.08571C36.0047 2.04399 36.0047 2.04399 36.0047 2.00228V1.79371C36.0047 1.752 36.0047 1.752 35.9639 1.71028C35.9639 1.66857 35.9231 1.66857 35.9231 1.66857H34.4552V0.959426C34.4552 0.875998 34.4552 0.792569 34.496 0.70914C34.496 0.625712 34.5368 0.583999 34.5775 0.542285C34.6183 0.50057 34.6591 0.458856 34.7406 0.458856C34.8222 0.417142 34.9037 0.417142 35.0261 0.417142H35.9231C35.9639 0.417142 35.9639 0.375428 35.9639 0.333714V0.0834277V0.0417142L35.9231 6.36508e-07H34.9853C34.6591 6.36508e-07 34.4144 0.083429 34.2513 0.208571C34.0882 0.333714 34.0067 0.583998 34.0067 0.875997V2.71142C34.0067 3.04514 34.0882 3.2537 34.2513 3.42056C34.4144 3.5457 34.6591 3.62913 34.9853 3.62913H35.9231C35.9231 3.62913 35.9639 3.62913 35.9639 3.58742C35.9639 3.71256 35.9639 3.71256 35.9639 3.67085ZM39.1444 2.25256C39.1444 2.46114 39.1036 2.66971 39.0628 2.79485C39.022 2.96171 38.9405 3.04514 38.8182 3.12856C38.7366 3.21199 38.6143 3.29542 38.492 3.29542C38.3696 3.33713 38.2473 3.33713 38.0842 3.33713H37.7988C37.7172 3.33713 37.6357 3.33713 37.5541 3.33713V0.500569C37.6357 0.458855 37.7172 0.458856 37.7988 0.458856C37.8803 0.458856 37.9619 0.458856 38.0842 0.458856C38.2473 0.458856 38.3696 0.500569 38.492 0.500569C38.6143 0.542284 38.7366 0.583998 38.8182 0.667427C38.8997 0.750855 38.9813 0.875997 39.0628 1.00114C39.1036 1.12628 39.1444 1.33485 39.1444 1.54342V2.25256ZM39.5113 1.58514C39.5113 1.33485 39.4706 1.12628 39.389 0.917711C39.3075 0.70914 39.2259 0.583998 39.1036 0.458856C38.9813 0.333713 38.8182 0.250286 38.6551 0.208571C38.492 0.166857 38.2881 0.125143 38.0842 0.125143C38.0027 0.125143 37.9211 0.125143 37.7988 0.125143C37.7172 0.125143 37.6357 0.125143 37.5541 0.125143C37.4726 0.125143 37.391 0.125143 37.3502 0.125143C37.3095 0.125143 37.2279 0.125143 37.2279 0.125143C37.1464 0.125143 37.1464 0.166857 37.1464 0.250285V3.58742C37.1464 3.67085 37.1871 3.71256 37.2279 3.71256C37.2687 3.71256 37.3095 3.75428 37.3502 3.75428C37.4318 3.75428 37.4726 3.75428 37.5541 3.75428C37.6357 3.75428 37.7172 3.75428 37.7988 3.75428C37.8803 3.75428 37.9619 3.75428 38.0842 3.75428C38.2881 3.75428 38.492 3.71256 38.6551 3.67085C38.8182 3.62913 38.9813 3.50399 39.1036 3.42056C39.2259 3.29542 39.3075 3.12856 39.389 2.96171C39.4706 2.75314 39.5113 2.54456 39.5113 2.29428V1.58514ZM43.0588 2.41942V0.208571C43.0588 0.166857 43.0588 0.166857 43.018 0.125143C42.9773 0.125143 42.9772 0.0834277 42.9772 0.0834277H42.7326C42.6918 0.0834277 42.6918 0.0834287 42.6918 0.125143L42.651 0.166856V2.37771C42.651 2.54456 42.6511 2.66971 42.6103 2.79485C42.5695 2.91999 42.5287 3.00342 42.4879 3.08685C42.4472 3.17028 42.3248 3.21199 42.2433 3.25371C42.1617 3.29542 42.0394 3.29542 41.8763 3.29542C41.7132 3.29542 41.5909 3.29542 41.5093 3.25371C41.4278 3.21199 41.3055 3.17028 41.2647 3.08685C41.2239 3.00342 41.1424 2.91999 41.1424 2.79485C41.1016 2.66971 41.1016 2.54456 41.1016 2.37771V0.166856C41.1016 0.125142 41.1016 0.125143 41.0608 0.125143C41.0608 0.0834287 41.02 0.0834277 41.02 0.0834277H40.7754C40.7346 0.0834277 40.7346 0.0834287 40.7346 0.125143C40.7346 0.166857 40.6938 0.166857 40.6938 0.208571V2.41942C40.6938 2.87828 40.7754 3.21199 41.02 3.46228C41.2239 3.67085 41.5093 3.79599 41.9171 3.79599C42.2841 3.79599 42.5695 3.67085 42.7734 3.46228C42.9772 3.21199 43.0588 2.87828 43.0588 2.41942ZM46.3616 3.58742V3.42056C46.3616 3.37885 46.3208 3.33713 46.2801 3.33713H46.2393C46.1985 3.33713 46.1577 3.33713 46.0762 3.33713C46.0354 3.33713 45.9539 3.33713 45.8723 3.33713C45.7908 3.33713 45.75 3.33713 45.6684 3.33713H45.4646C45.3422 3.33713 45.2199 3.33713 45.1383 3.29542C45.0568 3.2537 44.9345 3.21199 44.8937 3.12856C44.8121 3.04514 44.7714 2.91999 44.7306 2.79485C44.6898 2.66971 44.649 2.46114 44.649 2.25256V1.58514C44.649 1.37657 44.6898 1.20971 44.7306 1.04285C44.7714 0.917712 44.8529 0.792569 44.8937 0.70914C44.9752 0.625712 45.0568 0.542285 45.1383 0.542285C45.2199 0.50057 45.3422 0.500569 45.4646 0.500569C45.5461 0.500569 45.5869 0.500569 45.6684 0.500569C45.75 0.500569 45.8315 0.500569 45.8723 0.500569C45.9539 0.500569 46.0354 0.500569 46.0762 0.500569C46.1577 0.500569 46.1985 0.500569 46.2393 0.500569C46.2801 0.500569 46.2801 0.500569 46.2801 0.500569V0.458856V0.250285C46.2801 0.208571 46.2393 0.208571 46.1985 0.208571C46.0762 0.208571 45.9539 0.166856 45.8315 0.166856C45.7092 0.166856 45.5461 0.125143 45.383 0.125143C45.2199 0.125143 45.0976 0.166857 44.9345 0.208571C44.7714 0.250286 44.649 0.333713 44.5267 0.458856C44.4044 0.583998 44.3228 0.70914 44.2413 0.917711C44.1597 1.12628 44.119 1.37657 44.119 1.62685V2.29428C44.119 2.58628 44.1597 2.83656 44.2413 3.00342C44.3228 3.21199 44.4044 3.33713 44.5267 3.46228C44.649 3.58742 44.7714 3.67085 44.9345 3.71256C45.0976 3.75428 45.2199 3.79599 45.383 3.79599H45.6277C45.7092 3.79599 45.75 3.79599 45.8315 3.79599C45.9131 3.79599 45.9539 3.79599 45.9946 3.75428C46.0354 3.75428 46.117 3.75428 46.1577 3.71256C46.1985 3.71256 46.1985 3.71256 46.2393 3.67085C46.3208 3.67085 46.3616 3.62913 46.3616 3.58742ZM49.012 2.12742H47.9518L48.4004 0.542285C48.4004 0.50057 48.4412 0.458856 48.4819 0.458856C48.5227 0.458856 48.5635 0.50057 48.5635 0.542285L49.012 2.12742ZM49.8683 3.62913L49.012 0.458856C48.9712 0.375428 48.9712 0.333713 48.9305 0.291999C48.8897 0.250284 48.8489 0.208571 48.8081 0.166856C48.7674 0.125142 48.7266 0.125143 48.645 0.125143C48.6043 0.125143 48.5635 0.125143 48.5227 0.125143C48.4819 0.125143 48.4412 0.125143 48.4004 0.125143C48.3596 0.125143 48.3188 0.166856 48.2373 0.166856C48.1965 0.208571 48.1557 0.20857 48.115 0.291999C48.0742 0.333713 48.0334 0.417142 48.0334 0.458856L47.1363 3.62913V3.67085C47.1363 3.71256 47.1771 3.75428 47.2179 3.75428H47.5033H47.5441L47.5849 3.71256L47.9111 2.58628H49.1343L49.4198 3.71256C49.4198 3.75428 49.4605 3.75428 49.4605 3.75428L49.5013 3.79599H49.7867C49.8275 3.75428 49.8683 3.71256 49.8683 3.62913C49.8683 3.67085 49.8683 3.67085 49.8683 3.62913ZM52.7633 0.417142V0.166856C52.7633 0.125142 52.7226 0.0834277 52.6818 0.0834277H50.4391C50.3984 0.0834277 50.3984 0.0834287 50.3576 0.125143C50.3576 0.125143 50.3168 0.166857 50.3168 0.208571V0.458856C50.3168 0.50057 50.3168 0.500569 50.3576 0.500569C50.3984 0.500569 50.3984 0.542285 50.4391 0.542285H51.377V3.67085C51.377 3.71256 51.377 3.71256 51.4178 3.75428L51.4585 3.79599H51.7032C51.744 3.79599 51.744 3.79599 51.744 3.75428C51.744 3.71256 51.7847 3.71256 51.7847 3.67085V0.542285H52.7226C52.7226 0.50057 52.7633 0.500571 52.7633 0.417142ZM54.1089 3.67085V0.208571C54.1089 0.166857 54.1089 0.166856 54.0682 0.166856C54.0682 0.125142 54.0274 0.125143 54.0274 0.125143H53.7827C53.742 0.125143 53.742 0.125142 53.742 0.166856L53.7012 0.208571V3.67085C53.7012 3.71256 53.7012 3.71256 53.742 3.75428L53.7827 3.79599H54.0274C54.0682 3.79599 54.0682 3.79599 54.0682 3.75428C54.0682 3.71256 54.1089 3.67085 54.1089 3.67085ZM57.6564 2.25256C57.6564 2.46114 57.6564 2.62799 57.6156 2.79485C57.5748 2.96171 57.5341 3.04514 57.4525 3.12856C57.371 3.21199 57.2894 3.29542 57.2079 3.33713C57.1263 3.37885 57.004 3.37885 56.8817 3.37885C56.7593 3.37885 56.637 3.37885 56.5555 3.33713C56.4739 3.29542 56.3516 3.21199 56.3108 3.12856C56.2292 3.04514 56.1885 2.91999 56.1477 2.79485C56.1069 2.62799 56.1069 2.46114 56.1069 2.25256V1.62685C56.1069 1.41828 56.1477 1.25143 56.1477 1.08457C56.1885 0.917712 56.2292 0.834283 56.3108 0.70914C56.3923 0.625712 56.4739 0.542284 56.5555 0.500569C56.637 0.458855 56.7593 0.417142 56.8817 0.417142C57.004 0.417142 57.1263 0.458855 57.2079 0.500569C57.2894 0.542284 57.371 0.625712 57.4525 0.70914C57.5341 0.792569 57.5748 0.917712 57.6156 1.08457C57.6564 1.20971 57.6564 1.41828 57.6564 1.62685V2.25256ZM58.0234 1.62685C58.0234 1.37657 57.9826 1.12628 57.9418 0.959426C57.8603 0.750855 57.7787 0.625712 57.6972 0.500569C57.5748 0.375427 57.4525 0.291999 57.3302 0.250285C57.1671 0.208571 57.0448 0.166856 56.8409 0.166856C56.6778 0.166856 56.5147 0.208571 56.3516 0.250285C56.1885 0.291999 56.0662 0.417141 55.9846 0.500569C55.8623 0.625712 55.7807 0.792569 55.7399 0.959426C55.6584 1.168 55.6584 1.37657 55.6584 1.62685V2.25256C55.6584 2.50285 55.6992 2.75314 55.7399 2.91999C55.7807 3.12856 55.8623 3.25371 55.9846 3.37885C56.1069 3.50399 56.2293 3.58742 56.3516 3.67085C56.4739 3.71256 56.637 3.75428 56.8409 3.75428C57.004 3.75428 57.1671 3.71256 57.3302 3.67085C57.4933 3.62913 57.6156 3.50399 57.6972 3.37885C57.8195 3.25371 57.8603 3.08685 57.9418 2.91999C57.9826 2.71142 58.0234 2.50285 58.0234 2.25256V1.62685ZM61.5708 3.62913V0.208571C61.5708 0.166857 61.5708 0.166856 61.53 0.166856C61.53 0.125142 61.4893 0.125143 61.4893 0.125143H61.2446C61.2038 0.125143 61.2038 0.125142 61.2038 0.166856L61.1631 0.208571V3.08685L59.7767 0.208571C59.7359 0.166857 59.7359 0.166857 59.6952 0.125143C59.6544 0.125143 59.6544 0.0834277 59.5728 0.0834277H59.3282C59.2874 0.0834277 59.2466 0.0834287 59.2466 0.125143C59.2059 0.166857 59.2059 0.208571 59.2059 0.208571V3.67085C59.2059 3.71256 59.2059 3.71256 59.2466 3.71256H59.2874H59.5321C59.5728 3.71256 59.5728 3.71256 59.5728 3.67085C59.5728 3.67085 59.6136 3.62913 59.6136 3.58742V0.70914L61.0407 3.58742C61.0815 3.62913 61.1223 3.67085 61.2038 3.67085H61.4893C61.5301 3.67085 61.5301 3.67085 61.5708 3.62913C61.5708 3.67085 61.5708 3.67085 61.5708 3.62913ZM66.4231 3.58742V3.42056C66.4231 3.37885 66.3823 3.33713 66.3415 3.33713C66.3008 3.33713 66.26 3.33713 66.1784 3.33713C66.1377 3.33713 66.0561 3.33713 65.9746 3.33713C65.893 3.33713 65.8115 3.33713 65.7707 3.33713H65.5668C65.4445 3.33713 65.3222 3.33713 65.2406 3.29542C65.1591 3.2537 65.0367 3.21199 64.996 3.12856C64.9144 3.04514 64.8736 2.91999 64.8329 2.79485C64.7921 2.66971 64.7513 2.46114 64.7513 2.25256V1.58514C64.7513 1.37657 64.7921 1.20971 64.8329 1.04285C64.8736 0.917712 64.9552 0.792569 64.996 0.70914C65.0775 0.625712 65.1591 0.542285 65.2406 0.542285C65.3222 0.50057 65.4445 0.500569 65.5668 0.500569C65.6484 0.500569 65.6891 0.500569 65.7707 0.500569C65.8522 0.500569 65.9338 0.500569 65.9746 0.500569C66.0561 0.500569 66.1377 0.500569 66.1784 0.500569C66.26 0.500569 66.3008 0.500569 66.3415 0.500569C66.3823 0.500569 66.3823 0.500569 66.3823 0.500569V0.458856V0.250285C66.3823 0.208571 66.3415 0.208571 66.3008 0.208571C66.1784 0.208571 66.0561 0.166856 65.9338 0.166856C65.8115 0.166856 65.6484 0.125143 65.4853 0.125143C65.3222 0.125143 65.1998 0.166857 65.0367 0.208571C64.8736 0.250286 64.7513 0.333713 64.629 0.458856C64.5067 0.583998 64.4251 0.70914 64.3436 0.917711C64.262 1.12628 64.2212 1.37657 64.2212 1.62685V2.29428C64.2212 2.58628 64.262 2.83656 64.3436 3.00342C64.4251 3.21199 64.5067 3.33713 64.629 3.46228C64.7513 3.58742 64.8736 3.67085 65.0367 3.71256C65.1998 3.75428 65.3222 3.79599 65.4853 3.79599H65.7299C65.8115 3.79599 65.893 3.79599 65.9338 3.79599C66.0153 3.79599 66.0561 3.79599 66.0969 3.75428C66.1377 3.75428 66.2192 3.75428 66.26 3.71256C66.3008 3.71256 66.3008 3.71256 66.3415 3.67085C66.4231 3.67085 66.4231 3.62913 66.4231 3.58742ZM69.4405 3.67085V3.42056C69.4405 3.37885 69.4405 3.33713 69.3997 3.33713H68.5026C68.3803 3.33713 68.258 3.33713 68.2172 3.29542C68.1357 3.29542 68.0949 3.2537 68.0541 3.21199C68.0133 3.17028 67.9726 3.12856 67.9726 3.08685C67.9726 3.04513 67.9726 2.96171 67.9726 2.87828V2.12742H69.4405C69.4813 2.12742 69.4813 2.12742 69.4813 2.08571C69.4813 2.04399 69.522 2.04399 69.522 2.00228V1.79371C69.522 1.752 69.522 1.752 69.4813 1.71028C69.4813 1.66857 69.4405 1.66857 69.4405 1.66857H67.9726V0.959426C67.9726 0.875998 67.9726 0.792569 67.9726 0.70914C67.9726 0.625712 68.0133 0.583999 68.0541 0.542285C68.0949 0.50057 68.1357 0.458856 68.2172 0.458856C68.2988 0.417142 68.3803 0.417142 68.5026 0.417142H69.3997C69.4405 0.417142 69.4405 0.375428 69.4405 0.333714V0.0834277V0.0417142L69.3997 6.36508e-07H68.4619C68.1357 6.36508e-07 67.891 0.083429 67.7279 0.208571C67.5648 0.333714 67.4833 0.583998 67.4833 0.917711V2.75314C67.4833 3.08685 67.5648 3.29542 67.7279 3.46228C67.891 3.58742 68.1357 3.67085 68.4619 3.67085H69.3997C69.3997 3.67085 69.4405 3.67085 69.4405 3.62913C69.3997 3.71256 69.4405 3.71256 69.4405 3.67085ZM72.9879 3.62913V0.208571C72.9879 0.166857 72.9879 0.166856 72.9472 0.166856C72.9472 0.125142 72.9064 0.125143 72.9064 0.125143H72.6617C72.621 0.125143 72.621 0.125142 72.621 0.166856V0.208571V3.08685L71.2346 0.208571C71.2346 0.166857 71.1938 0.166857 71.153 0.125143C71.1123 0.125143 71.1123 0.0834277 71.0307 0.0834277H70.7861C70.7453 0.0834277 70.7045 0.0834287 70.7045 0.125143C70.6637 0.166857 70.6637 0.208571 70.6637 0.208571V3.67085C70.6637 3.71256 70.6637 3.71256 70.6637 3.71256H70.7045H70.9492C70.9899 3.71256 70.9899 3.71256 70.9899 3.67085C70.9899 3.67085 71.0307 3.62913 71.0307 3.58742V0.70914L72.4579 3.58742C72.4986 3.62913 72.5394 3.67085 72.621 3.67085H72.9064C72.9472 3.67085 72.9472 3.67085 72.9879 3.62913C72.9879 3.67085 72.9879 3.67085 72.9879 3.62913ZM76.3723 0.417142V0.166856C76.3723 0.125142 76.3315 0.0834277 76.2907 0.0834277H74.0481C74.0073 0.0834277 74.0073 0.0834287 73.9665 0.125143C73.9665 0.125143 73.9258 0.166857 73.9258 0.208571V0.458856C73.9258 0.50057 73.9258 0.500569 73.9665 0.500569C73.9665 0.500569 74.0073 0.542285 74.0481 0.542285H74.9859V3.67085C74.9859 3.71256 74.9859 3.71256 74.9859 3.75428L75.0267 3.79599H75.2714C75.3121 3.79599 75.3121 3.79599 75.3121 3.75428C75.3121 3.71256 75.3529 3.71256 75.3529 3.67085V0.542285H76.2907C76.3315 0.50057 76.3723 0.500571 76.3723 0.417142ZM79.2673 3.67085V3.42056C79.2673 3.37885 79.2673 3.33713 79.2266 3.33713H78.3295C78.2072 3.33713 78.0849 3.33713 78.0441 3.29542C77.9625 3.29542 77.9218 3.2537 77.881 3.21199C77.8402 3.17028 77.7994 3.12856 77.7994 3.08685C77.7994 3.04513 77.7994 2.96171 77.7994 2.87828V2.12742H79.2673C79.3081 2.12742 79.3081 2.12742 79.3081 2.08571C79.3081 2.04399 79.3489 2.04399 79.3489 2.00228V1.79371C79.3489 1.752 79.3489 1.752 79.3081 1.71028C79.3081 1.66857 79.2673 1.66857 79.2673 1.66857H77.7994V0.959426C77.7994 0.875998 77.7994 0.792569 77.7994 0.70914C77.7994 0.625712 77.8402 0.583999 77.881 0.542285C77.9218 0.50057 77.9625 0.458856 78.0441 0.458856C78.1256 0.417142 78.2072 0.417142 78.3295 0.417142H79.2266C79.2673 0.417142 79.2673 0.375428 79.2673 0.333714V0.0834277V0.0417142L79.2266 6.36508e-07H78.2887C77.9625 6.36508e-07 77.7179 0.083429 77.5548 0.208571C77.3917 0.333714 77.3101 0.583998 77.3101 0.917711V2.75314C77.3101 3.08685 77.3917 3.29542 77.5548 3.46228C77.7179 3.58742 77.9625 3.67085 78.2887 3.67085H79.2266C79.2266 3.67085 79.2673 3.67085 79.2673 3.62913C79.2673 3.71256 79.2673 3.71256 79.2673 3.67085ZM82.4478 1.08457C82.4478 1.20971 82.407 1.33485 82.3663 1.37657C82.3255 1.46 82.2439 1.54342 82.1624 1.58514C82.0808 1.62685 81.9585 1.66857 81.8362 1.66857C81.7139 1.66857 81.5508 1.71028 81.4284 1.71028H80.8576V0.500569C80.8984 0.500569 80.9391 0.500569 80.9799 0.500569C81.0207 0.500569 81.0615 0.458856 81.143 0.458856C81.1838 0.458856 81.2653 0.458856 81.3061 0.458856H81.4692C81.7954 0.458856 82.0401 0.50057 82.2032 0.583998C82.3663 0.667426 82.4478 0.834283 82.4478 1.08457ZM82.9371 3.62913L82.0808 2.04399C82.2032 2.00228 82.2847 1.96057 82.407 1.91885C82.4886 1.87714 82.5702 1.79371 82.6517 1.71028C82.7333 1.62685 82.774 1.54342 82.8148 1.41828C82.8556 1.33485 82.8556 1.20971 82.8556 1.08457C82.8556 0.917712 82.8148 0.750856 82.7333 0.625713C82.6517 0.500571 82.5702 0.417142 82.4478 0.333714C82.3255 0.250285 82.1624 0.208571 81.9993 0.166856C81.8362 0.125142 81.6323 0.125143 81.4692 0.125143C81.3877 0.125143 81.3061 0.125143 81.2246 0.125143C81.143 0.125143 81.0615 0.125143 80.9799 0.125143C80.8984 0.125143 80.8168 0.125143 80.776 0.125143C80.6945 0.125143 80.6537 0.125143 80.5722 0.125143C80.5314 0.125143 80.4906 0.166856 80.4906 0.166856C80.4906 0.166856 80.4498 0.208571 80.4498 0.250285V3.67085C80.4498 3.71256 80.4498 3.71256 80.4498 3.75428L80.4906 3.79599H80.7353C80.776 3.79599 80.776 3.79599 80.776 3.75428C80.776 3.71256 80.8168 3.71256 80.8168 3.67085V2.16914H81.51L82.407 3.71256C82.407 3.75428 82.4478 3.75428 82.4478 3.75428C82.4478 3.75428 82.4886 3.75428 82.5294 3.75428H82.8148C82.8556 3.75428 82.8964 3.75428 82.8964 3.67085C82.9371 3.67085 82.9371 3.67085 82.9371 3.62913Z" transform="translate(39.0625 18.5276)" fill="white"/>
</svg>
